<?xml version="1.0" encoding="utf-8"?>
<!-- Generator: Adobe Illustrator 23.0.5, SVG Export Plug-In . SVG Version: 6.00 Build 0)  -->
<svg version="1.1" id="Layer_1" xmlns="http://www.w3.org/2000/svg" xmlns:xlink="http://www.w3.org/1999/xlink" x="0px" y="0px"
	 viewBox="0 0 154.51 154.51" style="enable-background:new 0 0 154.51 154.51;" xml:space="preserve">
<style type="text/css">
	.st0{fill:#FFFFFF;}
	.st1{fill:none;stroke:#FFFFFF;stroke-width:0.75;stroke-miterlimit:10;}
</style>
<path class="st0" d="M108.19,111.23c0.29-0.94,0.64-1.73,0.75-2.55c0.61-4.24,0.89-8.15,7.19-8.07c3.75,0.05,6.19-3.87,6.23-7.95
	c0.09-8.93,0.12-17.87-0.02-26.8c-0.08-4.85-3.59-8.38-8.48-8.42c-16.19-0.11-32.38-0.03-48.56-0.03c-2.34,0-4.32,0.87-6.01,2.44
	c-0.73,0.68-1.58,1.5-2.46,0.36c-0.86-1.11,0.22-1.81,0.91-2.42c1.99-1.77,4.32-2.84,7.04-2.84c16.43-0.01,32.87-0.08,49.3,0.03
	c6.22,0.04,10.7,4.56,10.79,10.75c0.13,9.05,0.12,18.11,0,27.17c-0.08,5.91-3.99,10.08-10.04,10.71c-1.87,0.19-2.43,0.84-2.79,2.55
	c-1.99,9.39-2.32,9.8-10.3,4.52c-8.26-5.46-16.86-8.15-26.75-7.01c-3.05,0.35-6.17,0.11-9.26,0.03c-1.34-0.04-2.74-0.15-3.99-0.58
	c-1.36-0.47-3.83-0.7-2.99-2.79c0.73-1.83,2.27,0.11,3.46,0.33c1.09,0.2,2.17,0.48,3.26,0.58c1.1,0.1,2.23,0.12,3.33,0.02
	c13.64-1.31,26.5,0.41,37.59,9.25C106.84,110.84,107.5,110.95,108.19,111.23"/>
<path class="st1" d="M108.19,111.23c0.29-0.94,0.64-1.73,0.75-2.55c0.61-4.24,0.89-8.15,7.19-8.07c3.75,0.05,6.19-3.87,6.23-7.95
	c0.09-8.93,0.12-17.87-0.02-26.8c-0.08-4.85-3.59-8.38-8.48-8.42c-16.19-0.11-32.38-0.03-48.56-0.03c-2.34,0-4.32,0.87-6.01,2.44
	c-0.73,0.68-1.58,1.5-2.46,0.36c-0.86-1.11,0.22-1.81,0.91-2.42c1.99-1.77,4.32-2.84,7.04-2.84c16.43-0.01,32.87-0.08,49.3,0.03
	c6.22,0.04,10.7,4.56,10.79,10.75c0.13,9.05,0.12,18.11,0,27.17c-0.08,5.91-3.99,10.08-10.04,10.71c-1.87,0.19-2.43,0.84-2.79,2.55
	c-1.99,9.39-2.32,9.8-10.3,4.52c-8.26-5.46-16.86-8.15-26.75-7.01c-3.05,0.35-6.17,0.11-9.26,0.03c-1.34-0.04-2.74-0.15-3.99-0.58
	c-1.36-0.47-3.83-0.7-2.99-2.79c0.73-1.83,2.27,0.11,3.46,0.33c1.09,0.2,2.17,0.48,3.26,0.58c1.1,0.1,2.23,0.12,3.33,0.02
	c13.64-1.31,26.5,0.41,37.59,9.25C106.84,110.84,107.5,110.95,108.19,111.23z"/>
<path class="st0" d="M99.72,45.45c7.78,0,15.55-0.03,23.33,0c7.33,0.03,11.82,4.33,11.91,11.58c0.1,8.56,0.02,17.12,0.02,25.67
	c0,3.32-0.99,6.25-3.51,8.56c-0.67,0.62-1.41,1.08-2.23,0.21c-0.68-0.72-0.28-1.38,0.29-1.89c2.91-2.59,2.89-5.99,2.86-9.47
	c-0.07-7.46-0.01-14.92-0.03-22.37c-0.02-6.44-3.3-9.8-9.7-9.81c-15.43-0.04-30.86,0-46.29-0.03c-2.57-0.01-4.88,0.6-6.85,2.26
	c-0.82,0.69-1.7,1.31-2.49,0.22c-0.62-0.87,0.14-1.61,0.8-2.18c2.24-1.92,4.83-2.78,7.81-2.76C83.67,45.5,91.69,45.46,99.72,45.45"
	/>
<path class="st1" d="M99.72,45.45c7.78,0,15.55-0.03,23.33,0c7.33,0.03,11.82,4.33,11.91,11.58c0.1,8.56,0.02,17.12,0.02,25.67
	c0,3.32-0.99,6.25-3.51,8.56c-0.67,0.62-1.41,1.08-2.23,0.21c-0.68-0.72-0.28-1.38,0.29-1.89c2.91-2.59,2.89-5.99,2.86-9.47
	c-0.07-7.46-0.01-14.92-0.03-22.37c-0.02-6.44-3.3-9.8-9.7-9.81c-15.43-0.04-30.86,0-46.29-0.03c-2.57-0.01-4.88,0.6-6.85,2.26
	c-0.82,0.69-1.7,1.31-2.49,0.22c-0.62-0.87,0.14-1.61,0.8-2.18c2.24-1.92,4.83-2.78,7.81-2.76C83.67,45.5,91.69,45.46,99.72,45.45z"
	/>
<path class="st0" d="M41.34,85.98c-3.55-0.03-7.01-0.32-10.55-0.92c-2.23-0.38-5.08,0.43-7.67,0.43c-0.9,0-2.3,0.35-2.4-0.84
	c-0.12-1.34,1.32-0.95,2.19-0.98c2.4-0.1,5.56,0.79,4.7-3.26c-0.09-0.44,0.31-0.95,1.01-0.92c0.65,0.03,1.02,0.44,1.01,0.95
	c-0.02,2.81,2.51,3,4.47,3.3c4.7,0.73,9.48,0.52,14.2,0.15c3.05-0.25,3.38-1.37,1.41-3.67c-1.02-1.19-0.12-1.38,0.88-1.78
	c2.74-1.09,2.84-1.95,0.47-3.64c-1.2-0.85-0.88-1.27,0.33-1.79c3.12-1.31,3.19-1.76,0.7-3.64c-1.25-0.95-0.75-1.48,0.51-1.72
	c1.44-0.27,2.52-0.88,2.27-2.34c-0.3-1.79-1.99-1.12-3.15-1.16c-2.37-0.08-4.75-0.07-7.12-0.01c-2.25,0.05-2.71-0.69-1.57-2.46
	c1.09-1.68,2.38-3.32,2.52-5.37c0.17-2.61-0.66-4.93-3.05-6.48c-1.11-0.72-3.33-1.23-2.89,0.8c1.09,5.01-1.77,8.24-5.4,10.94
	c-3.69,2.75-5.12,12.42-4.35,16.6c0.12,0.67,0.04,1.38-0.01,2.07c-0.04,0.63-0.29,1.19-1.14,1.1c-0.65-0.07-0.84-0.58-0.85-1.08
	c-0.03-1.97-0.15-10.46,0.01-12.42c0.15-1.88-0.43-2.58-2.64-2.53c-1.52,0.03-4.38,1.01-4.38-0.87c0-1.77,2.86-0.83,4.42-0.86
	c6.23-0.12,12.86-6.61,12.2-12.18c-0.15-1.31-0.4-2.6,1.1-3.42c1.65-0.91,3.28-0.74,4.89,0.14c3.64,1.99,5.2,7.06,3.38,11.02
	c-1.42,3.09-1.42,3.09,2.35,3.1c1.29,0,2.59-0.04,3.89,0c3.28,0.12,4.68,2.26,3.52,5.05c-1.14,2.73-1.2,5.67-1.81,8.51
	c-0.57,2.7-1.24,5.42-2.33,7.97c-0.78,1.83-3.02,2.09-4.99,2.19C45.45,86.06,43.39,85.98,41.34,85.98"/>
<path class="st1" d="M41.34,85.98c-3.55-0.03-7.01-0.32-10.55-0.92c-2.23-0.38-5.08,0.43-7.67,0.43c-0.9,0-2.3,0.35-2.4-0.84
	c-0.12-1.34,1.32-0.95,2.19-0.98c2.4-0.1,5.56,0.79,4.7-3.26c-0.09-0.44,0.31-0.95,1.01-0.92c0.65,0.03,1.02,0.44,1.01,0.95
	c-0.02,2.81,2.51,3,4.47,3.3c4.7,0.73,9.48,0.52,14.2,0.15c3.05-0.25,3.38-1.37,1.41-3.67c-1.02-1.19-0.12-1.38,0.88-1.78
	c2.74-1.09,2.84-1.95,0.47-3.64c-1.2-0.85-0.88-1.27,0.33-1.79c3.12-1.31,3.19-1.76,0.7-3.64c-1.25-0.95-0.75-1.48,0.51-1.72
	c1.44-0.27,2.52-0.88,2.27-2.34c-0.3-1.79-1.99-1.12-3.15-1.16c-2.37-0.08-4.75-0.07-7.12-0.01c-2.25,0.05-2.71-0.69-1.57-2.46
	c1.09-1.68,2.38-3.32,2.52-5.37c0.17-2.61-0.66-4.93-3.05-6.48c-1.11-0.72-3.33-1.23-2.89,0.8c1.09,5.01-1.77,8.24-5.4,10.94
	c-3.69,2.75-5.12,12.42-4.35,16.6c0.12,0.67,0.04,1.38-0.01,2.07c-0.04,0.63-0.29,1.19-1.14,1.1c-0.65-0.07-0.84-0.58-0.85-1.08
	c-0.03-1.97-0.15-10.46,0.01-12.42c0.15-1.88-0.43-2.58-2.64-2.53c-1.52,0.03-4.38,1.01-4.38-0.87c0-1.77,2.86-0.83,4.42-0.86
	c6.23-0.12,12.86-6.61,12.2-12.18c-0.15-1.31-0.4-2.6,1.1-3.42c1.65-0.91,3.28-0.74,4.89,0.14c3.64,1.99,5.2,7.06,3.38,11.02
	c-1.42,3.09-1.42,3.09,2.35,3.1c1.29,0,2.59-0.04,3.89,0c3.28,0.12,4.68,2.26,3.52,5.05c-1.14,2.73-1.2,5.67-1.81,8.51
	c-0.57,2.7-1.24,5.42-2.33,7.97c-0.78,1.83-3.02,2.09-4.99,2.19C45.45,86.06,43.39,85.98,41.34,85.98z"/>
<path class="st0" d="M45.96,32.07c-0.57,1.42,0.77,4.09-1.06,4.04c-2.31-0.06-1.03-2.68-1.1-4.14c-0.06-1.28-0.96-3.75,0.88-3.72
	C47,28.29,45.29,30.8,45.96,32.07"/>
<path class="st1" d="M45.96,32.07c-0.57,1.42,0.77,4.09-1.06,4.04c-2.31-0.06-1.03-2.68-1.1-4.14c-0.06-1.28-0.96-3.75,0.88-3.72
	C47,28.29,45.29,30.8,45.96,32.07z"/>
<path class="st0" d="M23.94,52.4c-1.54-0.57-4.48,0.75-4.44-0.94c0.05-2.13,2.94-0.88,4.53-0.97c1.4-0.08,4.14-0.86,4.11,0.75
	C28.1,53.37,25.35,51.77,23.94,52.4"/>
<path class="st1" d="M23.94,52.4c-1.54-0.57-4.48,0.75-4.44-0.94c0.05-2.13,2.94-0.88,4.53-0.97c1.4-0.08,4.14-0.86,4.11,0.75
	C28.1,53.37,25.35,51.77,23.94,52.4z"/>
<path class="st0" d="M27.37,34.51c1.67,0.69,2.72,1.98,3.81,3.13c0.84,0.89,3.32,1.67,1.8,3.05c-1.24,1.13-2.13-0.98-3.12-1.69
	c-1.09-0.78-2.03-1.75-2.97-2.68C26.16,35.58,26.29,34.95,27.37,34.51"/>
<path class="st1" d="M27.37,34.51c1.67,0.69,2.72,1.98,3.81,3.13c0.84,0.89,3.32,1.67,1.8,3.05c-1.24,1.13-2.13-0.98-3.12-1.69
	c-1.09-0.78-2.03-1.75-2.97-2.68C26.16,35.58,26.29,34.95,27.37,34.51z"/>
<path class="st0" d="M62.22,34.6c0.85,0.12,1.22,0.76,0.75,1.24c-1.7,1.74-3.52,3.4-5.38,5c-0.64,0.55-1.23,0.06-1.44-0.56
	C55.91,39.56,61.33,34.53,62.22,34.6"/>
<path class="st1" d="M62.22,34.6c0.85,0.12,1.22,0.76,0.75,1.24c-1.7,1.74-3.52,3.4-5.38,5c-0.64,0.55-1.23,0.06-1.44-0.56
	C55.91,39.56,61.33,34.53,62.22,34.6z"/>
<path class="st0" d="M96.45,100.9c-0.77,0-1.53,0.01-2.3,0c-0.85-0.01-1.54-0.59-1.6-1.34c-0.07-0.8,0.47-1.45,1.33-1.6
	c0.14-0.03,0.29-0.04,0.44-0.04c1.45,0,2.89,0,4.34,0c0.45,0,0.86,0.1,1.17,0.39c0.2,0.19,0.36,0.15,0.58,0.08
	c2.7-0.95,4.93-2.49,6.85-4.43c1.44-1.45,2.51-3.11,3.24-4.95c0.13-0.32,0.22-0.56-0.33-0.6c-0.25-0.02-0.5-0.16-0.73-0.28
	c-0.72-0.38-1.12-0.92-1.04-1.72c0.14-1.39,0.25-2.79,0.37-4.18c0.14-1.53,0.3-3.05,0.42-4.58c0.12-1.58,1.41-2.45,3.14-2.07
	c1.58,0.34,2.74,1.51,2.97,3c0.03,0.16,0.12,0.23,0.24,0.31c0.76,0.49,1.11,1.14,1.02,2.01c-0.15,1.35-0.22,2.71-0.38,4.06
	c-0.09,0.77-0.68,1.23-1.41,1.53c-0.26,0.11-0.43,0.24-0.57,0.46c-0.34,0.5-0.84,0.86-1.42,1.13c-0.22,0.11-0.34,0.25-0.41,0.48
	c-1,3.29-3.05,5.95-5.84,8.18c-1.8,1.44-3.8,2.57-6.08,3.26c-0.17,0.05-0.26,0.15-0.36,0.28c-0.32,0.42-0.76,0.66-1.34,0.65
	C97.99,100.9,97.22,100.9,96.45,100.9"/>
<path class="st0" d="M73.89,73.99c0.78-2.05,1.92-3.9,3.4-5.57c0.71-0.8,1.48-1.54,2.33-2.21c0.19-0.15,0.29-0.3,0.28-0.54
	c-0.01-0.53,0.31-0.91,0.76-1.2c2.64-1.74,5.57-2.91,8.79-3.38c5.68-0.83,10.91,0.21,15.67,3.19c0.63,0.4,1.1,0.85,1.06,1.6
	c-0.01,0.18,0.16,0.24,0.28,0.34c2.54,2.08,4.42,4.56,5.59,7.48c0.03,0.08,0.06,0.15,0.09,0.23c0.01,0.04,0.02,0.08,0.02,0.13
	c-0.47-0.07-0.92-0.04-1.36,0.05c-0.28,0.06-0.36-0.03-0.44-0.23c-0.91-2.16-2.28-4.06-4.05-5.71c-0.17-0.16-0.37-0.31-0.54-0.48
	c-0.33-0.33-0.66-0.6-1.24-0.46c-0.4,0.09-0.76-0.13-1.09-0.35c-2.12-1.4-4.46-2.36-7.03-2.78c-4.92-0.81-9.49,0.04-13.62,2.66
	c-0.55,0.34-1.08,0.6-1.76,0.42c-0.19-0.05-0.27,0.09-0.36,0.17c-2.25,1.83-3.93,4.03-5.02,6.59c-0.11,0.27-0.22,0.32-0.5,0.23
	C74.77,74.03,74.33,74.06,73.89,73.99"/>
<path class="st0" d="M69.04,80.45c-0.07-0.44,0.29-1.05,0.98-1.51c0.2-0.13,0.3-0.27,0.33-0.52c0.23-1.83,2.51-3.27,4.43-2.82
	c1.06,0.25,1.56,0.79,1.65,1.79c0.27,2.95,0.53,5.89,0.8,8.84c0.13,1.45-1.23,2.52-2.95,2.27c-1.24-0.17-2.23-0.73-2.92-1.7
	c-0.1-0.15-0.23-0.22-0.4-0.29c-0.92-0.37-1.49-0.95-1.55-1.92C69.33,83.33,69.19,82.07,69.04,80.45"/>
<path class="st0" d="M81.81,79.75c-0.31,0-0.62,0-0.93,0c-0.27-0.04-0.53-0.02-0.8,0c-0.22,0-0.44,0-0.66,0
	c-0.02-0.02-0.05-0.05-0.07-0.07c-0.1-0.5,0.2-0.81,0.56-1.14c1.15-1.05,2.33-2.07,3.38-3.2c0.27-0.29,0.5-0.61,0.61-0.99
	c0.17-0.61-0.05-1.03-0.68-1.27c-0.65-0.25-1.34-0.23-2.02-0.2c-0.54,0.03-1.07,0.1-1.62,0.26c0-0.42,0-0.82,0-1.21
	c0-0.1,0.05-0.16,0.15-0.17c1.31-0.16,2.62-0.29,3.91,0.09c1.77,0.52,2.35,2.03,1.33,3.49c-0.66,0.95-1.57,1.72-2.41,2.52
	c-0.2,0.19-0.4,0.39-0.67,0.64h0.87c0.79,0,1.57,0.02,2.35-0.01c0.31-0.01,0.38,0.08,0.36,0.34c-0.02,0.28,0,0.56,0.01,0.85
	c-0.1,0.09-0.23,0.05-0.34,0.06c-0.37,0.01-0.74,0.01-1.12,0.02c-0.24,0-0.49,0-0.73,0C82.78,79.76,82.29,79.76,81.81,79.75"/>
<path class="st0" d="M91.17,77.82c-1.39,0-2.79,0-4.18-0.01c-0.17,0-0.42,0.09-0.48-0.06c-0.08-0.19-0.08-0.43,0.06-0.64
	c0.34-0.51,0.66-1.02,0.98-1.54c0.79-1.24,1.59-2.48,2.38-3.73c0.1-0.16,0.21-0.23,0.41-0.22c0.48,0.01,0.97,0,1.51,0
	c-1.08,1.65-2.14,3.27-3.24,4.95h0.79c0.54,0,1.08-0.02,1.62,0.01c0.29,0.01,0.36-0.08,0.34-0.33c-0.02-0.35,0-0.71-0.01-1.06
	c-0.01-0.17,0.03-0.26,0.25-0.24c0.33,0.02,0.66,0.01,0.99,0c0.21-0.01,0.29,0.05,0.28,0.25c-0.02,0.35,0.01,0.71-0.01,1.06
	c-0.02,0.25,0.07,0.36,0.34,0.31c0.31-0.05,0.45,0.05,0.4,0.35c-0.02,0.1,0,0.2,0,0.3c0,0.18,0.05,0.4-0.04,0.53
	c-0.09,0.14-0.35,0.04-0.53,0.05c-0.13,0-0.17,0.04-0.17,0.16c0.01,0.58,0.01,1.15,0.02,1.72c-0.09,0.09-0.21,0.05-0.31,0.05
	c-0.4,0.01-0.81,0-1.21,0.01l-0.02-0.42l-0.01-0.31c0-0.12,0-0.24,0-0.36c0-0.11,0.01-0.21,0.01-0.32c0.01-0.02,0.01-0.04,0-0.05
	c0-0.03,0-0.07-0.01-0.1c0-0.06,0-0.13,0-0.19C91.39,77.85,91.34,77.77,91.17,77.82"/>
<path class="st0" d="M98.93,85.2c1.55-2.15,3.07-4.24,4.61-6.37c-0.21-0.01-0.38-0.02-0.54-0.02c-1.52,0-3.05-0.01-4.57,0
	c-0.32,0-0.4-0.06-0.4-0.29c0-0.91-0.02-0.91,1.24-0.91c2.02,0,4.04,0,6.06,0c0.66,0,0.84,0.19,0.6,0.65
	c-0.05,0.1-0.12,0.19-0.19,0.28c-1.51,2.14-3.03,4.27-4.53,6.41c-0.13,0.18-0.27,0.25-0.55,0.25C100.12,85.19,99.57,85.2,98.93,85.2
	"/>
<path class="st0" d="M98.14,68.98c-1.18,5.92-2.36,11.83-3.54,17.75c-0.17,0.86-0.36,1.7-0.51,2.57c-0.07,0.39-0.17,0.53-0.42,0.53
	c-1.09,0.02-1.09,0.03-0.76-1.62c1.19-5.99,2.38-11.97,3.57-17.96c0.03-0.13,0.04-0.28,0.05-0.41c0.17-0.38,0.13-1.12,0.62-1
	c0.32,0.01,0.64,0.01,0.95,0.02C98.12,68.9,98.13,68.94,98.14,68.98"/>
<path class="st0" d="M91.41,81.18c0.01-0.01,0.01-0.02,0.02-0.03C91.42,81.16,91.42,81.17,91.41,81.18z"/>
<path class="st0" d="M91.41,81.18c-0.01,0.01-0.01,0.02-0.02,0.03C91.39,81.2,91.4,81.19,91.41,81.18z"/>
</svg>
