<svg id="Layer_1" data-name="Layer 1" xmlns="http://www.w3.org/2000/svg" viewBox="0 0 543 534"><defs><style>.cls-1{fill:#045d80;}.cls-2{fill:#fff;}</style></defs><title>Book Sales</title><path class="cls-1" d="M520.53,270.12c0,134.28-108.85,243.13-243.12,243.13S34.28,404.4,34.28,270.12,143.13,27,277.41,27,520.53,135.85,520.53,270.12"/><path class="cls-2" d="M438.82,292.14q-27.75,0-55.49,0h-4.74c0-2.4,0-4.26,0-6.11-.39-15.09-10.78-26-27.81-29.38q-24.73-4.84-49.46-9.72c-3.55-.71-8.4-.74-10.16-2.73s-.86-6.12-.59-9.27a10.17,10.17,0,0,1,2.28-4.82c3.79-5,8-9.85,11.58-15,1.1-1.55,1.87-2.57,4.08-2.78a22.65,22.65,0,0,0,16.27-8.82c4.71-6,6.58-12.71,6.72-19.93.16-7.79-2.37-14.05-11.36-17,2.19-3,4.67-5.75,6.28-8.82,10.24-19.35,8.92-38.15-4.26-56.19-4-5.42-7.37-5.74-12.88-1.4-4.29,3.39-8.95,4.85-14.67,2.93-3.07-1-6.26-1.82-9.4-2.71a122.17,122.17,0,0,0-61-1.57c-25.77,5.82-38.62,24.53-33.11,47,1.88,7.69,6,14.39,11.88,20.62-7.37,2-11.33,6.21-12.18,12.43a31.92,31.92,0,0,0,5.87,24c3.78,5.18,9.12,8.41,16.19,9.59a6.22,6.22,0,0,1,3.36,2.47c3.36,4.36,5.73,9.55,10,13.07,4.62,3.82,6.68,7.62,5.73,12.87a3.29,3.29,0,0,0,0,1c.42,2.29-.65,3.19-3.35,3.7-19.13,3.61-38.2,7.47-57.32,11.14-16.47,3.15-27.39,14.65-27.41,29.28q-.06,48.87,0,97.73c0,12.81,10.16,21.48,25,21.52h18.6v4.23c0,6.38-.07,12.77.05,19.15.07,3.37,2.65,5.62,6.06,5.67s6-2.13,6.13-5.5c.08-2,0-4,0-5.94V405.22h4.65c12.88,0,25.78.27,38.65-.08,10.3-.29,18.58,4.59,28.24,6.63-1.86,4.88-3.51,9.25-5.16,13.61-2.33,6.15,0,8.9,7.56,8.9h114c6,0,7.18-.72,9.09-5.66Q421.51,364.79,446.13,301c2.34-6.09.09-8.82-7.31-8.83m-130.5-32.81c.57.11,1.1.85,1.4,1.4,1.63,3.08,3.19,6.19,5.07,9.86-3.06-.13-5.64-.23-8.22-.37-1.78-.1-3.56-.38-5.33-.35-4.73.08-7.46,3.31-6,7.15,1.27,3.33,2.88,6.57,4.09,9.92a3.74,3.74,0,0,1-.33,3.24c-8.14,10-16.43,19.86-24.68,29.76-.14.16-.44.21-1,.48,5.26-21.72,10.43-43.06,15.73-65,6.57,1.3,13,2.53,19.29,3.87m-36.11-3.92c-5.95,3.42-15.34,3.56-21.33.11-6.16-3.53-8-8.43-6.15-16.75a57.43,57.43,0,0,0,33.17-.51c.34,6.49,1.83,12.85-5.69,17.15m41.1-57.21c-1.15,1.3-3,2.12-4.59,3.15l-1-.54c0-7.13-.06-14.25.09-21.37,0-.71,1.24-1.85,2.11-2a13,13,0,0,1,5.28,0c1.19.29,2.84,1.43,3,2.34,1,6.62-.08,13-4.91,18.42m-100.47,3.23c-2.16-1.82-3.9-2.86-5-4.26-4-5.16-4.87-11-4.26-17,.23-2.41,2.18-3,4.58-2.95,1.49,0,3,.13,4.66.22Zm13.76,3.26c-1-9.6-.56-19.33-.71-29a2.82,2.82,0,0,1,.69-1.79c3.67-4.06,7.4-8.06,11.35-12.34l2.39.71c4,1.26,7.69.13,9-2.77,1.37-3.05-.16-5.79-4.13-7.46-2.29-1-4.55-2-6.82-2.94-4.29-1.86-7.51-.91-9.85,2.72-2.77,4.27-5.69,8.47-8.81,13.09-12.09-8.82-17.57-19.22-16.47-32.11.92-10.83,7.84-18,19.22-21.71a89.15,89.15,0,0,1,17.33-3.66,107.88,107.88,0,0,1,46.15,4.86c5.92,1.91,12,3.92,18.58,2.31,3.14-.77,6.16-1.9,9.31-2.9,10.35,13.47,7.89,40.93-7.75,50.6-1.7-3.37-3-6.74-5-9.74-4-5.89-9.68-6.62-15.91-2.41-6.53,4.41-13.94,6-22.19,5.5-5.93-.39-9.9,4-7,7.89a9.7,9.7,0,0,0,6.16,3.1A44.6,44.6,0,0,0,289,161.11c.62-.35,1.29-.64,2.68-1.33,1.15,5,2.91,9.51,3.12,14.11.42,9.56.36,19.15-.12,28.71-.75,15-15.69,27-33.55,27.47-16.94.45-32.94-10.89-34.52-25.38m-13.53,55.63a4,4,0,0,1,2.41-1.31c5.8-1.21,11.63-2.32,17.9-3.55,1.3,5.25,2.57,10.37,3.8,15.49.65,2.69,1.17,5.41,1.88,8.08,1,3.65,3.74,5.55,7.13,5,3.79-.58,5.59-3.05,4.85-7-.65-3.42-1.51-6.82-2.38-10.68a41.34,41.34,0,0,0,25.1.15c-4.15,17.23-8.17,33.91-12.18,50.6l-.79.14q-2.21-9.3-4.44-18.58c-.48-2.05-.89-4.11-1.54-6.11a6,6,0,0,0-7.26-3.86c-3.36.74-5.21,3.17-4.51,6.27,1.73,7.64,3.57,15.27,5.36,22.91.14.63.22,1.27.46,2.73-1.24-1.34-2-2-2.57-2.77-7.4-8.95-14.75-17.93-22.22-26.84-1.33-1.6-1.67-3-.73-4.82a87.35,87.35,0,0,0,4-9.26c1.43-3.93-1.29-7.16-6.07-7.1-4.29.06-8.57.48-13.52.78,1.94-3.81,3.54-7.12,5.36-10.34m206.09,77.13c-10.64,27.58-21.33,55.13-31.86,82.73-1.05,2.73-2.39,3.65-5.84,3.63-32.28-.14-64.55-.08-96.83-.08H279.8c1.25-3.37,2.26-6.47,3.63-9.46.28-.62,1.8-1,2.82-1.17,9.63-1.55,19.3-3,28.91-4.59a12.47,12.47,0,0,0,5.62-2.38c7.55-6.25,14.93-12.65,22.29-19.06,5.25-4.57,6.59-9.79,3.85-15-2.88-5.5-8-8-14.94-7.93-9.53.09-19.07,0-29.1,0,.77-2.15,1.36-3.9,2-5.63,3.75-9.79,7.55-19.57,11.28-29.37,1.21-3.16.06-5.78-2.86-7a6.37,6.37,0,0,0-8.69,3.66c-2.06,5.08-3.85,10.23-6.06,15.25a5.77,5.77,0,0,1-3.57,2.64c-3.43.78-7.12.75-10.49,1.64a15.55,15.55,0,0,0-6.53,3.48c-3.06,2.93-5.44,6.37-8.31,9.45a5.77,5.77,0,0,1-3.56,1.92c-20.92.1-41.85,0-62.77,0a7,7,0,0,1-1.26-.37v-6.29c0-7.81,0-15.63,0-23.45,0-4.08-2.13-6.18-6-6.18s-6.18,2.2-6.2,6.15q-.08,17.18,0,34.34c0,4.4,2.43,6.43,7.58,6.43q36.18,0,72.34,0a8.5,8.5,0,0,0,7.14-3.1c2.65-3.24,5.64-6.27,8.11-9.59,1.94-2.62,4.5-3.24,8.15-3.07-1.48,3.93-2.92,7.62-4.27,11.34-1.87,5.17.59,8.22,6.88,8.27,11.73.08,23.47,0,35.21.09,1.56,0,3.11.94,4.67,1.44-.69,1.4-1,3.1-2.15,4.13-4.44,4.1-9.52,7.72-13.65,12-4.67,4.85-10.45,6.87-17.42,7.57-6.69.68-13.29,1.95-20,2.79a14.31,14.31,0,0,1-5.5-.32c-5.91-1.7-11.77-3.54-17.54-5.55a3.81,3.81,0,0,1-2.24-2.71c-.24-4.17-.05-8.36-.12-12.54-.06-4-2.28-6.18-6.12-6.22s-6.07,2.08-6.11,6.11c0,4.27,0,8.53,0,13-1.6.06-2.84.16-4.08.16H169.54q-13.38,0-13.39-11.57,0-48.54,0-97.07c0-9.69,6.66-16.78,17.56-18.87,8-1.54,16-3.14,24.8-4.85-2,4-3.81,7.32-5.52,10.69-2.89,5.67-.22,9.1,6.87,8.8,4-.17,8.1-.45,12.3-.69-.1.63,0,1.12-.26,1.46-4,5.71-1.65,10.25,2.59,15.21,13.66,16,26.84,32.37,40.22,48.58,4.36,5.28,8.39,5.3,12.8,0,14-16.8,27.75-33.7,42-50.34,3.45-4,4.57-7.65,1.8-12.06a20.21,20.21,0,0,1-1.18-2.82c4.55.25,8.79.54,13,.71,6.37.27,9.19-3.2,6.69-8.26-1.74-3.52-3.61-7-5.78-11.19,5.89,1.1,11.13,2.05,16.35,3.06,2.61.49,5.19,1.1,7.79,1.61,11.74,2.33,18.06,9.1,18.15,19.47,0,1.73,0,3.47,0,5.65H324c-5.39,0-6.75.83-8.42,5.09-1.27,3.21-2.56,6.43-3.7,9.68a5.21,5.21,0,0,0,3.73,7,6.49,6.49,0,0,0,7.9-3.62c1.1-2.42,1.34-6,3.36-7,2.47-1.28,6.41-.51,9.71-.51q45.54,0,91.09,0h4.87c-4.55,11.83-8.93,23.27-13.34,34.69"/></svg>