<svg id="Layer_1" data-name="Layer 1" xmlns="http://www.w3.org/2000/svg" viewBox="0 0 543 534"><defs><style>.cls-1{fill:#045d80;}.cls-2{fill:#f1f1f1;}</style></defs><title>Contact Us</title><path class="cls-1" d="M525,266.19c0,140-113.51,253.53-253.53,253.53S18,406.21,18,266.19,131.46,12.66,271.47,12.66,525,126.17,525,266.19"/><path class="cls-2" d="M420.48,151.52a37.62,37.62,0,0,0-1.17-9.08c-2.57-10.29-13.22-21.51-30-21.41-46.67.27-93.34.09-140,.09h-4.65c0-3.93.15-7.43,0-10.91a32.11,32.11,0,0,0-64.11-.43c-.21,3.59,0,7.2,0,10-6,1.89-11.41,2.77-16,5.24-11,5.93-15.32,15.92-15.31,28.18q.09,88.28,0,176.57c0,1.21-.07,2.42,0,3.62.13,1.71-.65,2.19-2.24,2.88-4.57,2-9.46,3.81-13.25,6.9-10.87,8.86-12.65,21-10.54,34a47.61,47.61,0,0,0,43,39.79c21,1.88,41.52-11.28,48.56-31.39,1-2.79,2.16-3.54,5-3.54q85,.15,170,.06c17.93,0,30.73-12.73,30.74-30.66q.06-100,0-200M190.33,400.78c-13.59,8.39-27.6,8.5-40.86-.29S131,378.64,133.19,362.9c1.1-8,8.56-15.4,15.68-16.23.36,4,.29,8.11,1.14,12,3,13.89,14.79,23.27,29.08,23.44,8.54.11,17.08,0,26,0a35.1,35.1,0,0,1-14.78,18.64M207.5,369c0,.75-.1,1.5-.17,2.45a24.1,24.1,0,0,1-2.63.28c-8.46,0-16.91.08-25.36,0-11.67-.11-19.83-8.35-19.83-20q0-100.32,0-200.64c0-11.6,9.66-20.83,20.79-19.54V136q0,90.1,0,180.21c0,10.56,2.78,19.94,11.11,26.63,4.57,3.66,10.26,5.94,16.14,9.23,0,4.85,0,10.88,0,16.91m-17-50.11c-.15-17.79,0-35.58,0-53.37V215.46q0-51.4,0-102.79c0-10.33,6.13-18.85,15.48-21.73a22.09,22.09,0,0,1,28.6,20.59c.15,5.26,0,10.54,0,15.81q0,95,0,190.09c0,11-6.16,19.68-15.81,22.49a22,22,0,0,1-28.27-21m205,52.32a23.3,23.3,0,0,1-5.54.52q-84.67,0-169.35,0c-.87,0-1.74-.07-2.83-.12V351a71.51,71.51,0,0,0,8.56-3.11c11.17-5.64,17.41-14.7,18.25-27.29.13-1.86.13-3.73.13-5.6q0-89.61,0-179.23V131.2h144c13.63,0,21.66,8.06,21.67,21.74V350.3c0,10.94-5.38,18.53-14.93,20.92M265,203.65H385.21c5.48,0,6.93-1.48,6.93-7.07q0-17.62,0-35.25c0-4.91-1.6-6.56-6.45-6.56q-60.62,0-121.24,0c-5,0-6.68,1.69-6.69,6.73q0,17.46,0,34.92c0,5.68,1.55,7.23,7.19,7.23M268.37,165c1.27-.06,2.35-.14,3.42-.15,35.44,0,70.87,0,106.31-.07,3.22,0,4.08.91,4,4-.23,6.91-.07,13.83-.07,20.74v3.76H268.37ZM392.12,321.72c-.07-3.4-1.93-5.37-5.29-5.41q-10.69-.12-21.39,0c-3.34,0-5.44,1.95-5.49,5.28-.13,8-.11,16,0,24a5.17,5.17,0,0,0,5.38,5.47q10.69.21,21.39,0c3.53-.06,5.36-2.13,5.42-5.68.05-3.84,0-7.68,0-11.52,0-4.06.06-8.12,0-12.17m-10.43,18.82H370.48V326.73h11.21ZM290,322.12c-.05-4-1.88-5.8-5.88-5.82q-10.2-.07-20.4,0c-3.88,0-5.89,2-5.93,5.87q-.12,11.52,0,23c0,3.69,2,5.83,5.65,5.89q10.53.18,21.06,0c3.68-.07,5.46-2.15,5.5-5.94s0-7.68,0-11.52,0-7.68,0-11.52M279.65,340.5H268.38V326.76h11.27Zm55.9-24.19q-10.51-.1-21.05,0c-3.57,0-5.42,1.9-5.49,5.5-.07,3.95,0,7.9,0,11.84s-.05,7.9,0,11.84c.07,3.59,1.86,5.55,5.45,5.61q10.53.19,21.05,0c3.39-.05,5.5-1.92,5.57-5.24q.24-12.17,0-24.34c-.07-3.35-2.19-5.18-5.54-5.21m-4.86,24.18h-11.5V326.83h11.5Zm-67.53-83.86q10.68.21,21.38,0c3.71-.07,5.41-2.07,5.45-5.93s0-7.45,0-11.18c0-3.95,0-7.89,0-11.84s-1.82-5.67-5.62-5.7q-10.53-.09-21.05,0c-3.53,0-5.48,1.93-5.53,5.52q-.15,11.83,0,23.68c.05,3.37,2,5.36,5.36,5.42m5.14-24.54c3.4,0,6.65-.07,9.89.07a2.22,2.22,0,0,1,1.56,1.51c.14,4.14.08,8.27.08,12.5H268.3Zm96.87,24.53q10.84.22,21.7,0c3.53-.07,5.21-2.12,5.26-5.78,0-3.83,0-7.67,0-11.51s.05-7.89,0-11.84c-.07-3.61-1.88-5.46-5.49-5.49q-10.53-.1-21.05,0c-3.6,0-5.6,1.86-5.65,5.4-.12,7.9-.1,15.79,0,23.68,0,3.4,1.93,5.47,5.24,5.54m5.3-24.53c3.36,0,6.62-.07,9.86.07a2.23,2.23,0,0,1,1.57,1.51c.13,4.14.07,8.27.07,12.62h-11.5ZM290,275.43c0-4.4-1.74-6.31-6.07-6.38q-10-.15-20.06,0c-4.13.07-6.06,2.06-6.1,6.12,0,7.56-.06,15.13,0,22.69,0,4,1.92,5.9,5.82,5.93q10.35.1,20.72,0c3.81,0,5.61-1.87,5.67-5.66s0-7.68,0-11.51,0-7.46,0-11.19m-10.28,17c0,.43-1.2,1.17-1.86,1.2-3.05.13-6.1.06-9.43.06V279.51h11.38c0,4.32.05,8.63-.09,12.95m55.95-23.36q-10.69-.25-21.37,0c-3.66.09-5.24,2-5.3,5.73s0,7.67,0,11.51-.05,7.89,0,11.83,1.84,5.59,5.68,5.62q10.36.09,20.72,0c3.74,0,5.67-1.83,5.73-5.66q.18-11.69,0-23.35c-.06-3.66-1.89-5.6-5.46-5.68m-5,24.48h-11.3V279.64h11.3Zm61.48-18.67c-.05-3.74-1.82-5.76-5.6-5.83-7-.14-14-.15-21,0-3.67.09-5.53,2.2-5.56,5.94q-.1,11.52,0,23c.05,3.78,2,5.69,5.68,5.73q10.53.1,21,0c3.62,0,5.41-1.9,5.48-5.52.06-3.94,0-7.89,0-11.84s0-7.68,0-11.51m-10.27,17.55c0,.43-1.19,1.17-1.86,1.2-3,.13-6.1.06-9.56.06v-14.1H382c0,4.21.05,8.52-.09,12.84M309,251.23c.07,3.37,1.65,5.3,4.92,5.37,7.34.17,14.68.14,22,0,3.07-.05,5-1.89,5.1-4.94.16-8.21.19-16.44,0-24.65-.07-3.39-2.12-5-5.63-5q-10.37-.09-20.71,0c-4,0-5.68,1.79-5.73,5.89-.05,3.72,0,7.45,0,11.17,0,4.06-.06,8.11,0,12.17m10.3-18.87h11.37v14H319.31Z"/></svg>