<svg id="Layer_1" data-name="Layer 1" xmlns="http://www.w3.org/2000/svg" viewBox="0 0 134.16 75.87"><defs><style>.cls-1{fill:#fff;}.cls-2{fill:none;stroke:#fff;stroke-miterlimit:10;stroke-width:1.5px;}</style></defs><title>Female and Male</title><path class="cls-1" d="M48,75.92H42.19c-.5,0-.9-.12-.95-.69s.33-.7.93-.7q5.76,0,11.54,0c.66,0,1,.25,1,.71s-.35.67-1,.67H48" transform="translate(-4.45 -0.81)"/><path class="cls-2" d="M48,75.92H42.19c-.5,0-.9-.12-.95-.69s.33-.7.93-.7q5.76,0,11.54,0c.66,0,1,.25,1,.71s-.35.67-1,.67Z" transform="translate(-4.45 -0.81)"/><path class="cls-1" d="M36.1.81A31,31,0,0,1,50.42,3.57a13.68,13.68,0,0,1,6.5,18.76,1.69,1.69,0,0,0,.13,1.91c2.31,3.88,2.13,7.85-.95,11.32a8.13,8.13,0,0,0-2,5c-.45,4.24-1.27,8.38-4,11.88-1.62,2.12.19,3,1.49,3.83,3.89,2.34,7.87,4.51,11.84,6.71,3,1.69,5.8,3.64,6.86,7.18a18.14,18.14,0,0,1,.54,3c.09.78-.11,1.42-1.13,1.43-.81,0-1.43-.07-1.45-1.09,0-4.38-3-6.49-6.41-8.32-3.09-1.65-6.14-3.4-9.11-5.25-1.55-1-2.22-1-3.2.84-3.27,6-8.56,8.43-14.39,7.06A12.28,12.28,0,0,1,26.93,61c-1-2.07-2-2-3.73-1-3.72,2.21-7.53,4.27-11.35,6.31C9.11,67.75,7.27,69.81,7.11,73c-.06,1.17-.46,1.73-1.65,1.62s-1-1.13-1-1.87a9.64,9.64,0,0,1,5.16-8.29c4.57-2.61,9.19-5.11,13.79-7.67,3.46-1.92,3.52-2.19,1.4-5.48a24.74,24.74,0,0,1-3.54-11.28,6.48,6.48,0,0,0-1.79-4.37,8.67,8.67,0,0,1-1.13-11.25A1.87,1.87,0,0,0,18.5,22c-3.43-5.7-1.1-13.58,4.07-16.92A27.47,27.47,0,0,1,36.1.81M46.88,43.17C52,37.5,51.69,30.66,52.14,24c.11-1.72-1.15-1.77-2.21-1.94a72.22,72.22,0,0,0-20-.52c-6.44.75-6.43.87-6.11,7.42.05.93.12,1.85.15,2.78.12,3.7,1.58,7,3.17,10.22.38.78,1.34,2.24,2.08.81,1.8-3.5,4.41-4.67,8.25-4.87s6.1.29,8.21,3.41c.4.58.78,1.19,1.22,1.86M38.3,65.43a10.57,10.57,0,0,0,9.49-6.75c.25-.69.57-1.39-.13-2s-1.28.14-1.88.43A35.91,35.91,0,0,1,41.58,59c-4.13,1.35-7.9.22-11.48-1.93-.51-.31-1-.84-1.66-.46s-.34.84-.18,1.37a11,11,0,0,0,10,7.41M37.52,48.3c.7,0,1.45.31,1.9.05,1.75-1,4.65-.82,4.82-3.46a3.56,3.56,0,0,0-3.19-3.64,27.84,27.84,0,0,0-6.45.06c-1.83.21-2.75,1.74-3.17,3.4-.5,1.94,1.48,2.34,2.49,2.91s2.3,1.37,3.6.68M20.37,11.84C29.13,8,38.61,9.11,47.78,8.2,38.23,6.54,29,6.77,20.37,11.84m28.56,4.73a45.56,45.56,0,0,0-10-.77,53.84,53.84,0,0,0-16.92,3c-.66.21-1.7.37-1.46,1.21.35,1.25,1.33.41,2,.2a65.53,65.53,0,0,1,9-2.14c5.74-.85,11.57-.7,17.34-1.5M20.63,26.94l-.87-.07c-1.05,1.88-.54,3.63.87,6Zm34.55-.69a9.82,9.82,0,0,0-.1,5.65c1-1.63,1.63-3.26.1-5.65" transform="translate(-4.45 -0.81)"/><path class="cls-1" d="M126.72,51c-1.44,3.35-2.83,6.73-4.34,10.05-1.79,4-3.9,7.74-7.33,10.6-5.42,4.53-10.57,4.79-16.34.74-1.35-1-2.67-2-4-2.91-.92-.66-1.84-1.34-2.8-1.93C85,63.36,81.7,64.34,78.29,71.36c-.58,1.2-.54,3.9-2.42,3.06s-.42-3,.27-4.43c1.9-3.78,4-7.47,6.06-11.14a20.56,20.56,0,0,0,2.86-10.91c-.13-7.33-.07-14.67,0-22A21.45,21.45,0,0,1,104.54,4.16c10.2-1,19.94,6.71,22.1,17.67a87.7,87.7,0,0,1,1.8,16,58.33,58.33,0,0,0,7.2,28.49,24.17,24.17,0,0,1,2.83,6.51c.14.67.37,1.5-.58,1.84s-1.5-.22-1.82-1.11C133.3,66,128.17,59.33,126.72,51M94.58,46c-.11-.3-.32-.51-.59-.29-.1.09.05.47.09.72,1.81,4.36,3.47,8.78,5.46,13.06,1.7,3.65,4.49,4.25,7.84,2A13.77,13.77,0,0,0,111.55,57,85.2,85.2,0,0,0,117,46.25a.92.92,0,0,0,.3-1.28l-.85.64c-7.73,6.6-13.57,6.69-21.84.35m-2-13.79c.22,1.94.43,3.89.65,5.83.48,4.34,6.92,10,11.11,10,7.06-.08,12.77-4.76,14.13-12.21,1.15-6.33-6-16.7-12.3-17.88a7.24,7.24,0,0,0-3.33-.08c-4.7,1.51-10.21,9.44-10.26,14.34M82.7,62.78A23.17,23.17,0,0,1,96.64,68.2c1.46,1.15,3.06,2.11,4.54,3.23,3,2.24,6.12,2.13,9.34.65a16.31,16.31,0,0,0,6.1-5.14c4.87-6.38,7.54-13.67,8.89-21.5a35.84,35.84,0,0,0,.32-10.6c-.88.22-.89.79-1.08,1.24a227.18,227.18,0,0,1-10.4,21.05,16.11,16.11,0,0,1-6.77,7c-4.29,2.15-7.93,1.09-10.12-3.2-1.59-3.11-2.85-6.4-4.25-9.61q-2.53-5.84-5.06-11.69c-.31,8,.15,15.91-5.45,23.13m36.44-37.15c-.25-5.07-1.06-9.56-3.74-13.53a10.94,10.94,0,0,0-9.92-5.19A18.48,18.48,0,0,0,87.6,24.12c-.34,4.83.56,9,2.57,11.59,0-5.7-1.29-11.43,1.6-17.57.15,1.23.19,1.63.25,2,.15,1-.58,2.37.43,2.83,1.35.62,1.69-1.14,2.53-1.77a12.57,12.57,0,0,0,1.3-1.33c5.86-5.91,11.92-5.82,17.78,0,1.73,1.71,3.22,3.65,5.08,5.76m2,11.61c4.66-9.11,3.82-19-2.21-24.28,3.28,8.18,2.89,16.21,2.21,24.28" transform="translate(-4.45 -0.81)"/></svg>