<?xml version="1.0" encoding="utf-8"?>
<!-- Generator: Adobe Illustrator 23.0.5, SVG Export Plug-In . SVG Version: 6.00 Build 0)  -->
<svg version="1.1" id="Layer_1" xmlns="http://www.w3.org/2000/svg" xmlns:xlink="http://www.w3.org/1999/xlink" x="0px" y="0px"
	 viewBox="0 0 115.02 115.02" style="enable-background:new 0 0 115.02 115.02;" xml:space="preserve">
<style type="text/css">
	.st0{fill:#FFFFFF;}
</style>
<path class="st0" d="M97.13,67.38c0,8.94,0.01,17.89-0.01,26.83c-0.01,3.58-0.75,4.37-4.24,4.37c-17.68,0.02-35.35,0.02-53.03,0
	c-3.52,0-4.18-0.75-4.22-4.36c-0.01-1.49,0-2.98-0.01-4.47c-0.01-0.55-0.1-1.15-0.72-1.26c-0.74-0.13-1.41,0.52-1.33,1.03
	c0.58,3.95-2.7,5.51-4.75,7.78c-1.93,2.13-4.03,4.1-6.08,6.12c-1.9,1.86-4.02,2.14-5.89,0.16c-1.74-1.85-1.38-3.9,0.38-5.67
	c3.08-3.1,6.18-6.17,9.26-9.27c1.11-1.12,2.34-1.63,3.99-1.58c1.78,0.06,2.31-0.78,1.08-2.35c-7.34-9.34-5.75-23.42,3.07-30.82
	c1.22-1.02,1.05-2.2,1.06-3.44c0.01-9.26-0.01-18.53,0.01-27.79c0.01-3.92,0.75-4.65,4.65-4.65c11.39-0.01,22.79,0.04,34.18-0.04
	c1.99-0.01,3.39,0.65,4.75,2.03c5.29,5.4,10.64,10.75,16.04,16.04c1.32,1.29,1.87,2.65,1.86,4.5
	C97.09,49.49,97.13,58.44,97.13,67.38 M38.8,50.66c12.22-4.48,22.35-2.17,28.9,6.32c6.02,7.82,6.35,18.73,0.8,26.81
	c-6.4,9.32-16.01,11.81-29.74,7.53c0.68,1.58-1.62,4.25,2.32,4.23c16.92-0.08,33.84-0.07,50.76,0.01c1.99,0.01,2.48-0.62,2.47-2.54
	c-0.07-17.24-0.06-34.48-0.01-51.72c0-1.39-0.41-2.4-1.38-3.36c-5.23-5.16-10.42-10.34-15.59-15.56c-0.87-0.88-1.74-1.4-3.04-1.39
	c-11.17,0.04-22.35,0.05-33.52,0c-1.53-0.01-2.01,0.48-1.99,2.01C38.82,32.13,38.8,41.28,38.8,50.66 M49.75,51.23
	c-11.06-0.01-19.86,8.78-19.86,19.83c0.01,10.76,8.92,19.68,19.73,19.74c10.87,0.06,19.88-8.99,19.86-19.94
	C69.47,60.04,60.63,51.24,49.75,51.23 M30.6,91.12c-0.22-0.32-0.33-0.68-0.55-0.78c-0.7-0.32-1.17,0.16-1.63,0.62
	c-2.91,2.92-5.83,5.83-8.74,8.75c-0.52,0.52-1.25,1.14-0.47,1.83c0.79,0.7,1.31-0.21,1.8-0.69c2.86-2.83,5.69-5.67,8.52-8.52
	C29.9,91.96,30.22,91.55,30.6,91.12"/>
<path class="st0" d="M66.66,41.8c-6.38,0-12.75,0.01-19.13,0c-1.14,0-2.73,0.26-2.8-1.27c-0.09-1.77,1.59-1.63,2.85-1.63
	c12.75-0.01,25.5-0.01,38.25,0.01c1.11,0,2.7-0.29,2.78,1.33c0.1,1.94-1.62,1.56-2.82,1.56C79.41,41.81,73.03,41.8,66.66,41.8"/>
<path class="st0" d="M60.84,26.93c4.36,0,8.72,0.01,13.08,0c1.11,0,2.3,0.01,2.25,1.52c-0.04,1.29-1.13,1.33-2.12,1.33
	c-9.04,0-18.08,0-27.12,0c-1.01,0-2.09-0.13-2.1-1.37c-0.02-1.46,1.18-1.49,2.29-1.49C51.69,26.94,56.27,26.93,60.84,26.93"/>
<path class="st0" d="M78.17,53.86c-2.66,0-5.31-0.02-7.97,0.01c-1.18,0.01-2.32-0.27-2.3-1.58c0.02-1.32,1.2-1.55,2.35-1.55
	c5.42,0.01,10.83,0,16.25,0.01c1.01,0,2.02,0.18,2.09,1.43c0.09,1.48-1.01,1.67-2.14,1.68C83.7,53.87,80.94,53.86,78.17,53.86"/>
<path class="st0" d="M79.28,89.69c-2.34,0-4.68-0.01-7.02,0.01c-1.04,0.01-2.03-0.22-2.03-1.43c0-0.93,0.8-1.54,1.73-1.55
	c4.99-0.04,9.99-0.04,14.99-0.01c0.91,0,1.73,0.43,1.69,1.5c-0.05,1.25-0.99,1.48-2.02,1.48C84.17,89.69,81.72,89.69,79.28,89.69"/>
<path class="st0" d="M81.26,62.78c1.92,0,3.83-0.02,5.75,0.01c0.97,0.01,1.66,0.47,1.63,1.52c-0.02,0.9-0.69,1.39-1.47,1.4
	c-3.94,0.06-7.88,0.06-11.81,0.01c-0.77-0.01-1.45-0.46-1.46-1.38c-0.01-1.05,0.62-1.54,1.61-1.55
	C77.43,62.77,79.35,62.78,81.26,62.78"/>
<path class="st0" d="M81.64,74.81c1.69,0,3.39-0.01,5.08,0.01c0.9,0.01,1.66,0.05,1.49,1.39c-0.13,1.04-0.43,1.46-1.51,1.45
	c-3.39-0.05-6.78-0.02-10.17-0.01c-0.92,0-1.79-0.22-1.87-1.27c-0.1-1.28,0.84-1.55,1.89-1.56C78.25,74.81,79.95,74.81,81.64,74.81"
	/>
<path class="st0" d="M46.78,76.45c4.13-4.87,7.96-9.44,11.86-13.94c0.67-0.77,1.34-2.37,2.73-1.21c1.19,0.98,0.17,2.27-0.43,3
	c-4.18,5.1-8.48,10.11-12.77,15.13c-1.21,1.41-2.35,1.17-3.32-0.35c-1.71-2.69-3.47-5.35-5.14-8.06c-0.45-0.72-1.61-1.73-0.45-2.41
	c0.85-0.49,2.22-0.43,3.01,0.88C43.65,71.75,45.14,73.94,46.78,76.45"/>
</svg>
