<?xml version="1.0" encoding="utf-8"?>
<!-- Generator: Adobe Illustrator 23.0.5, SVG Export Plug-In . SVG Version: 6.00 Build 0)  -->
<svg version="1.1" id="Layer_1" xmlns="http://www.w3.org/2000/svg" xmlns:xlink="http://www.w3.org/1999/xlink" x="0px" y="0px"
	 viewBox="0 0 115.02 115.02" style="enable-background:new 0 0 115.02 115.02;" xml:space="preserve">
<style type="text/css">
	.st0{fill:#FFFFFF;}
	.st1{fill:none;stroke:#FFFFFF;stroke-width:1.5;stroke-miterlimit:10;}
</style>
<path class="st0" d="M50.27,35.92c1.28,0.56,2.41,1.05,3.53,1.54c0.6,0.26,1.19,0.53,1.79,0.77c0.99,0.39,1.44,1.09,1.43,2.16
	c-0.02,2.84,0,5.68-0.01,8.52c0,0.31,0.05,0.6,0.17,0.88c1.18,2.65,2.37,5.29,3.53,7.94c0.22,0.5,0.42,0.51,0.84,0.22
	c2.76-1.89,5.55-3.74,8.3-5.64c0.89-0.61,1.73-0.88,2.66-0.14c0.15,0.12,0.25,0.07,0.38-0.01c0.2-0.14,0.4-0.29,0.61-0.4
	c0.8-0.41,1.24-0.93,1.38-1.96c0.24-1.91,1.5-3.14,3.36-3.68c0.39-0.11,0.49-0.28,0.49-0.66c-0.01-4.71,0-9.41,0.01-14.12
	c0-0.14-0.01-0.28,0-0.42c0.03-0.42,0.25-0.71,0.68-0.7c0.45,0.01,0.7,0.29,0.7,0.75c0,1.05,0,2.11,0,3.16
	c0,3.75,0.01,7.5-0.01,11.26c0,0.45,0.09,0.58,0.56,0.58c1.39-0.01,2.21,0.85,2.22,2.25c0.01,2.05,0,4.1,0,6.15
	c0,1.49-0.79,2.31-2.27,2.33c-0.39,0-0.52,0.1-0.51,0.51c0.03,1.26,0,2.51,0.01,3.77c0.01,0.5-0.16,0.85-0.68,0.91
	c-0.44,0.05-0.72-0.32-0.73-0.92c-0.01-1.34,0-2.67,0-4.17c-0.68,0.46-1.27,0.86-1.85,1.27c-0.17,0.12-0.03,0.3,0.01,0.45
	c0.2,0.82-0.05,1.49-0.72,1.98c-3.6,2.6-7.17,5.25-10.82,7.76c-4.46,3.07-10.4,1.26-12.49-3.71c-0.64-1.53-1.3-3.04-1.98-4.63
	c-0.17,0.18-0.12,0.35-0.12,0.49c0,3.63,0.01,7.26-0.02,10.89c0,0.48,0.17,0.56,0.59,0.55c1.77-0.02,3.53-0.01,5.29-0.01
	c1.26,0,1.86,0.61,1.86,1.87c0,1.32,0.01,2.64,0,3.96c-0.01,1.09-0.65,1.74-1.74,1.75c-0.67,0.01-1.34,0.03-2.01-0.01
	c-0.44-0.03-0.53,0.13-0.53,0.54c0.02,4.44,0.01,8.88,0.01,13.33c0,0.16,0.01,0.32,0,0.49c-0.03,0.43-0.28,0.69-0.7,0.69
	c-0.42,0-0.65-0.28-0.7-0.7c-0.01-0.12,0.01-0.24,0.01-0.37c0-4.46-0.01-8.92,0.01-13.39c0-0.49-0.14-0.59-0.61-0.59
	c-10.06,0.01-20.12,0.01-30.18,0c-0.5,0-0.64,0.11-0.63,0.62c0.02,4.36,0,8.72-0.01,13.08c0,0.2,0.01,0.41-0.01,0.61
	c-0.02,0.42-0.24,0.71-0.67,0.71c-0.45,0-0.7-0.28-0.71-0.74c-0.01-0.18,0-0.36,0-0.55c0-4.38-0.01-8.76,0.01-13.14
	c0-0.48-0.12-0.63-0.6-0.59c-0.65,0.04-1.3,0.02-1.95,0.01c-1.06-0.01-1.72-0.65-1.73-1.7c-0.01-1.4-0.01-2.8,0-4.2
	c0.01-1.03,0.65-1.65,1.68-1.68c0.61-0.01,1.22-0.04,1.83,0.01c0.6,0.05,0.78-0.11,0.77-0.75c-0.03-5.21-0.02-10.43-0.02-15.64
	c0-1.68-0.01-3.37,0-5.05c0.03-3.72,2.55-6.79,6.2-7.53c2.09-0.42,4.18-0.81,6.27-1.19c0.47-0.08,0.63-0.23,0.66-0.76
	c0.09-1.39-0.12-2.4-1.48-3.29c-1.8-1.18-2.59-3.16-2.68-5.35c-0.01-0.34-0.14-0.54-0.38-0.76c-2.25-1.97-3.76-4.36-3.92-7.42
	c-0.11-2.25,0.45-4.35,1.78-6.19c1.09-1.5,2.58-2.31,4.45-2.38c0.26-0.01,0.44-0.04,0.61-0.29c1.64-2.43,3.98-3.46,6.84-3.25
	c3.61,0.26,6.59,1.82,8.75,4.73c1.66,2.24,2.1,4.88,2,7.62c-0.08,2.25-0.64,4.37-2.02,6.2c-1.02,1.36-1.02,1.35-1.41,3.04
	c-0.48,2.11-1.65,3.72-3.51,4.82c-0.34,0.2-0.5,0.4-0.47,0.8c0.04,0.61,0.04,1.22,0,1.83c-0.03,0.41,0.12,0.55,0.52,0.63
	c2.59,0.48,5.17,1,7.77,1.47c2.14,0.39,3.91,1.41,5.29,3.09c0.06,0.08,0.13,0.15,0.2,0.22c0.01,0.01,0.04,0,0.07,0
	c0.11-0.14,0.05-0.3,0.06-0.45c0.01-1.85-0.01-3.69,0.01-5.54c0.01-0.49-0.16-0.78-0.63-0.97c-1.63-0.68-3.23-1.41-4.86-2.09
	c-0.68-0.29-1.13-0.74-1.13-1.5c-0.01-0.76,0.43-1.21,1.12-1.5c1.59-0.67,3.15-1.38,4.75-2.04c0.55-0.23,0.76-0.54,0.76-1.14
	c-0.02-3.89-0.01-7.79-0.01-11.68c0-2.38,1.49-3.86,3.88-3.86c10.89,0,21.78,0.01,32.68,0.01c2.39,0,3.88,1.48,3.88,3.87
	c0.01,12.86,0.01,25.72,0.01,38.58c0,2.37-1.51,3.88-3.88,3.88c-2.72,0-5.44,0-8.15-0.01c-0.7,0-1.07-0.25-1.05-0.72
	c0.01-0.47,0.36-0.69,1.08-0.69c2.7,0,5.4,0,8.09,0c1.65,0,2.51-0.85,2.51-2.51c0-9.23,0-18.46,0-27.69c0-3.57,0.01-7.14,0.02-10.71
	c0-1.76-0.86-2.61-2.61-2.61c-10.83,0-21.66,0-32.49,0c-1.73,0-2.57,0.84-2.57,2.58c0,3.89-0.02,7.79,0.01,11.68
	c0.01,1.12-0.44,1.83-1.48,2.25c-1.52,0.62-3.02,1.29-4.52,1.95C50.83,35.64,50.63,35.74,50.27,35.92 M37.8,61.82h-0.01
	c0,3.18,0.01,6.37-0.01,9.55c0,0.41,0.11,0.5,0.52,0.5c3.43-0.02,6.85-0.03,10.28,0.01c0.65,0.01,0.78-0.18,0.78-0.8
	c-0.03-4.87-0.01-9.73-0.02-14.6c0-0.41,0.03-0.81,0.48-0.95c0.56-0.18,0.8,0.19,0.99,0.64c1.1,2.61,2.2,5.23,3.32,7.83
	c1.83,4.27,6.81,5.68,10.6,2.99c3.47-2.46,6.91-4.97,10.37-7.44c0.45-0.32,0.52-0.59,0.19-1.04c-1.15-1.62-2.28-3.25-3.42-4.88
	c-0.43-0.61-0.5-0.63-1.11-0.22c-2.82,1.91-5.64,3.82-8.46,5.72c-1.28,0.86-2.24,0.58-2.87-0.82c-1.41-3.16-2.81-6.33-4.23-9.49
	c-1.08-2.4-2.93-3.81-5.51-4.29c-1.61-0.3-3.23-0.6-4.83-0.93c-0.45-0.09-0.73-0.03-1.02,0.37c-1.92,2.56-3.87,5.1-5.82,7.64
	c-0.21,0.27-0.24,0.54-0.24,0.85C37.8,55.57,37.8,58.69,37.8,61.82 M21.42,60.62c0,3.55,0.01,7.1-0.01,10.65
	c0,0.49,0.15,0.62,0.61,0.59c0.79-0.04,1.58-0.04,2.37,0c0.5,0.03,0.6-0.14,0.6-0.61c-0.02-3.63-0.01-7.26-0.01-10.89
	c0-0.18-0.01-0.37,0.01-0.55c0.03-0.41,0.3-0.64,0.68-0.65c0.38-0.01,0.64,0.23,0.69,0.63c0.02,0.16,0.01,0.32,0.01,0.48
	c0,3.65,0.01,7.3-0.01,10.95c0,0.45,0.07,0.63,0.59,0.63c2.98-0.03,5.96-0.02,8.94,0c0.44,0,0.54-0.13,0.53-0.55
	c-0.01-6.33-0.01-12.66,0-18.98c0-0.3-0.07-0.54-0.24-0.79c-1.77-2.55-3.53-5.1-5.28-7.66c-0.2-0.29-0.38-0.4-0.74-0.33
	c-1.17,0.25-2.35,0.45-3.52,0.69c-3.21,0.66-5.21,3.12-5.21,6.39C21.42,53.97,21.42,57.29,21.42,60.62 M37.04,78.02
	c6.47,0,12.93-0.01,19.4,0.01c0.51,0,0.67-0.14,0.66-0.65c-0.03-1.13-0.04-2.27,0-3.41c0.02-0.6-0.18-0.74-0.76-0.74
	c-7.03,0.02-14.07,0.01-21.1,0.01c-5.8,0-11.6,0.01-17.39-0.01c-0.57,0-0.74,0.16-0.72,0.72c0.04,1.15,0.03,2.31,0,3.47
	c-0.01,0.5,0.17,0.61,0.63,0.61C24.19,78.02,30.61,78.02,37.04,78.02 M28.99,29.99c0-1.48,0.02-2.8-0.01-4.13
	c-0.01-0.57,0.18-0.88,0.75-1.06c1.72-0.53,2.92-1.63,3.43-3.39c0.1-0.33,0.26-0.6,0.63-0.65c0.35-0.05,0.57,0.13,0.75,0.4
	c0.62,0.93,1.49,1.56,2.53,1.9c1.76,0.58,3.54,0.75,5.25-0.16c0.7-0.37,1.02-0.3,1.3,0.44c0.26,0.68,0.67,1.25,1.38,1.42
	c0.7,0.17,0.89,0.56,0.87,1.22c-0.03,1.22-0.01,2.45-0.01,3.67c0.29-0.21,0.47-0.45,0.61-0.7c0.74-1.29,1.07-2.7,1.22-4.17
	c0.53-5.47-2.43-9.78-7.67-11.12c-3.34-0.86-6.28,0.21-7.64,2.9c-0.18,0.35-0.48,0.45-0.87,0.41c-1.66-0.15-2.97,0.49-3.95,1.82
	c-0.84,1.14-1.26,2.45-1.43,3.83C25.8,25.51,26.9,27.86,28.99,29.99 M44.47,29.48c0-0.97-0.01-1.95,0.01-2.92
	c0.01-0.31-0.05-0.52-0.38-0.66c-0.55-0.24-0.99-0.64-1.31-1.15c-0.19-0.3-0.35-0.31-0.68-0.22c-2.79,0.76-5.38,0.4-7.69-1.44
	c-0.3-0.24-0.38-0.13-0.52,0.12c-0.72,1.26-1.79,2.14-3.12,2.68c-0.31,0.13-0.43,0.27-0.43,0.62c0.02,1.84-0.01,3.69,0.01,5.54
	c0.04,2.86,2,5.25,4.76,5.86c1.1,0.24,2.22,0.15,3.33,0.14c3.31-0.04,5.93-2.65,6-5.96C44.49,31.22,44.47,30.35,44.47,29.48
	 M81.49,51.34c0-1.06,0-2.11,0-3.17c0-0.48-0.22-0.8-0.7-0.81c-0.61-0.02-1.22-0.03-1.82,0.06c-1.46,0.2-2.54,1.31-2.76,2.77
	c-0.11,0.78-0.13,1.58,0.01,2.36c0.23,1.31,1.01,2.18,2.27,2.61c0.77,0.26,1.57,0.19,2.35,0.15c0.45-0.03,0.65-0.35,0.65-0.8
	C81.48,53.45,81.48,52.39,81.49,51.34 M32.18,43.2c0.04,0.11,0.05,0.15,0.07,0.18c1.53,2.22,3.06,4.43,4.58,6.66
	c0.26,0.39,0.38,0.37,0.66,0.01c1.55-2.08,3.14-4.13,4.7-6.2c0.15-0.2,0.37-0.37,0.43-0.7c-0.57,0.06-1.08-0.45-1.68,0.03
	c-2.37,1.91-4.7,1.89-7.06-0.01c-0.21-0.17-0.39-0.26-0.66-0.19C32.88,43.06,32.54,43.12,32.18,43.2 M34.55,40.56h-0.03
	c0,0.33,0.01,0.65,0,0.97c-0.01,0.25,0.09,0.41,0.27,0.57c1.44,1.3,3.21,1.41,4.81,0.35c0.54-0.36,0.85-0.75,0.75-1.44
	c-0.06-0.44-0.03-0.89-0.01-1.33c0.02-0.34-0.06-0.45-0.44-0.38c-1.39,0.26-2.79,0.13-4.19,0.13c-0.39,0-0.89-0.36-1.13-0.05
	C34.39,39.64,34.55,40.15,34.55,40.56 M74.78,52.62c-0.36,0.23-0.65,0.44-0.96,0.61c-0.28,0.16-0.31,0.3-0.12,0.56
	c0.51,0.7,1,1.43,1.5,2.14c0.8,1.15,0.8,1.15,1.95,0.19C75.84,55.33,75.05,54.18,74.78,52.62"/>
<path class="st1" d="M50.27,35.92c1.28,0.56,2.41,1.05,3.53,1.54c0.6,0.26,1.19,0.53,1.79,0.77c0.99,0.39,1.44,1.09,1.43,2.16
	c-0.02,2.84,0,5.68-0.01,8.52c0,0.31,0.05,0.6,0.17,0.88c1.18,2.65,2.37,5.29,3.53,7.94c0.22,0.5,0.42,0.51,0.84,0.22
	c2.76-1.89,5.55-3.74,8.3-5.64c0.89-0.61,1.73-0.88,2.66-0.14c0.15,0.12,0.25,0.07,0.38-0.01c0.2-0.14,0.4-0.29,0.61-0.4
	c0.8-0.41,1.24-0.93,1.38-1.96c0.24-1.91,1.5-3.14,3.36-3.68c0.39-0.11,0.49-0.28,0.49-0.66c-0.01-4.71,0-9.41,0.01-14.12
	c0-0.14-0.01-0.28,0-0.42c0.03-0.42,0.25-0.71,0.68-0.7c0.45,0.01,0.7,0.29,0.7,0.75c0,1.05,0,2.11,0,3.16
	c0,3.75,0.01,7.5-0.01,11.26c0,0.45,0.09,0.58,0.56,0.58c1.39-0.01,2.21,0.85,2.22,2.25c0.01,2.05,0,4.1,0,6.15
	c0,1.49-0.79,2.31-2.27,2.33c-0.39,0-0.52,0.1-0.51,0.51c0.03,1.26,0,2.51,0.01,3.77c0.01,0.5-0.16,0.85-0.68,0.91
	c-0.44,0.05-0.72-0.32-0.73-0.92c-0.01-1.34,0-2.67,0-4.17c-0.68,0.46-1.27,0.86-1.85,1.27c-0.17,0.12-0.03,0.3,0.01,0.45
	c0.2,0.82-0.05,1.49-0.72,1.98c-3.6,2.6-7.17,5.25-10.82,7.76c-4.46,3.07-10.4,1.26-12.49-3.71c-0.64-1.53-1.3-3.04-1.98-4.63
	c-0.17,0.18-0.12,0.35-0.12,0.49c0,3.63,0.01,7.26-0.02,10.89c0,0.48,0.17,0.56,0.59,0.55c1.77-0.02,3.53-0.01,5.29-0.01
	c1.26,0,1.86,0.61,1.86,1.87c0,1.32,0.01,2.64,0,3.96c-0.01,1.09-0.65,1.74-1.74,1.75c-0.67,0.01-1.34,0.03-2.01-0.01
	c-0.44-0.03-0.53,0.13-0.53,0.54c0.02,4.44,0.01,8.88,0.01,13.33c0,0.16,0.01,0.32,0,0.49c-0.03,0.43-0.28,0.69-0.7,0.69
	c-0.42,0-0.65-0.28-0.7-0.7c-0.01-0.12,0.01-0.24,0.01-0.37c0-4.46-0.01-8.92,0.01-13.39c0-0.49-0.14-0.59-0.61-0.59
	c-10.06,0.01-20.12,0.01-30.18,0c-0.5,0-0.64,0.11-0.63,0.62c0.02,4.36,0,8.72-0.01,13.08c0,0.2,0.01,0.41-0.01,0.61
	c-0.02,0.42-0.24,0.71-0.67,0.71c-0.45,0-0.7-0.28-0.71-0.74c-0.01-0.18,0-0.36,0-0.55c0-4.38-0.01-8.76,0.01-13.14
	c0-0.48-0.12-0.63-0.6-0.59c-0.65,0.04-1.3,0.02-1.95,0.01c-1.06-0.01-1.72-0.65-1.73-1.7c-0.01-1.4-0.01-2.8,0-4.2
	c0.01-1.03,0.65-1.65,1.68-1.68c0.61-0.01,1.22-0.04,1.83,0.01c0.6,0.05,0.78-0.11,0.77-0.75c-0.03-5.21-0.02-10.43-0.02-15.64
	c0-1.68-0.01-3.37,0-5.05c0.03-3.72,2.55-6.79,6.2-7.53c2.09-0.42,4.18-0.81,6.27-1.19c0.47-0.08,0.63-0.23,0.66-0.76
	c0.09-1.39-0.12-2.4-1.48-3.29c-1.8-1.18-2.59-3.16-2.68-5.35c-0.01-0.34-0.14-0.54-0.38-0.76c-2.25-1.97-3.76-4.36-3.92-7.42
	c-0.11-2.25,0.45-4.35,1.78-6.19c1.09-1.5,2.58-2.31,4.45-2.38c0.26-0.01,0.44-0.04,0.61-0.29c1.64-2.43,3.98-3.46,6.84-3.25
	c3.61,0.26,6.59,1.82,8.75,4.73c1.66,2.24,2.1,4.88,2,7.62c-0.08,2.25-0.64,4.37-2.02,6.2c-1.02,1.36-1.02,1.35-1.41,3.04
	c-0.48,2.11-1.65,3.72-3.51,4.82c-0.34,0.2-0.5,0.4-0.47,0.8c0.04,0.61,0.04,1.22,0,1.83c-0.03,0.41,0.12,0.55,0.52,0.63
	c2.59,0.48,5.17,1,7.77,1.47c2.14,0.39,3.91,1.41,5.29,3.09c0.06,0.08,0.13,0.15,0.2,0.22c0.01,0.01,0.04,0,0.07,0
	c0.11-0.14,0.05-0.3,0.06-0.45c0.01-1.85-0.01-3.69,0.01-5.54c0.01-0.49-0.16-0.78-0.63-0.97c-1.63-0.68-3.23-1.41-4.86-2.09
	c-0.68-0.29-1.13-0.74-1.13-1.5c-0.01-0.76,0.43-1.21,1.12-1.5c1.59-0.67,3.15-1.38,4.75-2.04c0.55-0.23,0.76-0.54,0.76-1.14
	c-0.02-3.89-0.01-7.79-0.01-11.68c0-2.38,1.49-3.86,3.88-3.86c10.89,0,21.78,0.01,32.68,0.01c2.39,0,3.88,1.48,3.88,3.87
	c0.01,12.86,0.01,25.72,0.01,38.58c0,2.37-1.51,3.88-3.88,3.88c-2.72,0-5.44,0-8.15-0.01c-0.7,0-1.07-0.25-1.05-0.72
	c0.01-0.47,0.36-0.69,1.08-0.69c2.7,0,5.4,0,8.09,0c1.65,0,2.51-0.85,2.51-2.51c0-9.23,0-18.46,0-27.69c0-3.57,0.01-7.14,0.02-10.71
	c0-1.76-0.86-2.61-2.61-2.61c-10.83,0-21.66,0-32.49,0c-1.73,0-2.57,0.84-2.57,2.58c0,3.89-0.02,7.79,0.01,11.68
	c0.01,1.12-0.44,1.83-1.48,2.25c-1.52,0.62-3.02,1.29-4.52,1.95C50.83,35.64,50.63,35.74,50.27,35.92z M37.8,61.82h-0.01
	c0,3.18,0.01,6.37-0.01,9.55c0,0.41,0.11,0.5,0.52,0.5c3.43-0.02,6.85-0.03,10.28,0.01c0.65,0.01,0.78-0.18,0.78-0.8
	c-0.03-4.87-0.01-9.73-0.02-14.6c0-0.41,0.03-0.81,0.48-0.95c0.56-0.18,0.8,0.19,0.99,0.64c1.1,2.61,2.2,5.23,3.32,7.83
	c1.83,4.27,6.81,5.68,10.6,2.99c3.47-2.46,6.91-4.97,10.37-7.44c0.45-0.32,0.52-0.59,0.19-1.04c-1.15-1.62-2.28-3.25-3.42-4.88
	c-0.43-0.61-0.5-0.63-1.11-0.22c-2.82,1.91-5.64,3.82-8.46,5.72c-1.28,0.86-2.24,0.58-2.87-0.82c-1.41-3.16-2.81-6.33-4.23-9.49
	c-1.08-2.4-2.93-3.81-5.51-4.29c-1.61-0.3-3.23-0.6-4.83-0.93c-0.45-0.09-0.73-0.03-1.02,0.37c-1.92,2.56-3.87,5.1-5.82,7.64
	c-0.21,0.27-0.24,0.54-0.24,0.85C37.8,55.57,37.8,58.69,37.8,61.82z M21.42,60.62c0,3.55,0.01,7.1-0.01,10.65
	c0,0.49,0.15,0.62,0.61,0.59c0.79-0.04,1.58-0.04,2.37,0c0.5,0.03,0.6-0.14,0.6-0.61c-0.02-3.63-0.01-7.26-0.01-10.89
	c0-0.18-0.01-0.37,0.01-0.55c0.03-0.41,0.3-0.64,0.68-0.65c0.38-0.01,0.64,0.23,0.69,0.63c0.02,0.16,0.01,0.32,0.01,0.48
	c0,3.65,0.01,7.3-0.01,10.95c0,0.45,0.07,0.63,0.59,0.63c2.98-0.03,5.96-0.02,8.94,0c0.44,0,0.54-0.13,0.53-0.55
	c-0.01-6.33-0.01-12.66,0-18.98c0-0.3-0.07-0.54-0.24-0.79c-1.77-2.55-3.53-5.1-5.28-7.66c-0.2-0.29-0.38-0.4-0.74-0.33
	c-1.17,0.25-2.35,0.45-3.52,0.69c-3.21,0.66-5.21,3.12-5.21,6.39C21.42,53.97,21.42,57.29,21.42,60.62z M37.04,78.02
	c6.47,0,12.93-0.01,19.4,0.01c0.51,0,0.67-0.14,0.66-0.65c-0.03-1.13-0.04-2.27,0-3.41c0.02-0.6-0.18-0.74-0.76-0.74
	c-7.03,0.02-14.07,0.01-21.1,0.01c-5.8,0-11.6,0.01-17.39-0.01c-0.57,0-0.74,0.16-0.72,0.72c0.04,1.15,0.03,2.31,0,3.47
	c-0.01,0.5,0.17,0.61,0.63,0.61C24.19,78.02,30.61,78.02,37.04,78.02z M28.99,29.99c0-1.48,0.02-2.8-0.01-4.13
	c-0.01-0.57,0.18-0.88,0.75-1.06c1.72-0.53,2.92-1.63,3.43-3.39c0.1-0.33,0.26-0.6,0.63-0.65c0.35-0.05,0.57,0.13,0.75,0.4
	c0.62,0.93,1.49,1.56,2.53,1.9c1.76,0.58,3.54,0.75,5.25-0.16c0.7-0.37,1.02-0.3,1.3,0.44c0.26,0.68,0.67,1.25,1.38,1.42
	c0.7,0.17,0.89,0.56,0.87,1.22c-0.03,1.22-0.01,2.45-0.01,3.67c0.29-0.21,0.47-0.45,0.61-0.7c0.74-1.29,1.07-2.7,1.22-4.17
	c0.53-5.47-2.43-9.78-7.67-11.12c-3.34-0.86-6.28,0.21-7.64,2.9c-0.18,0.35-0.48,0.45-0.87,0.41c-1.66-0.15-2.97,0.49-3.95,1.82
	c-0.84,1.14-1.26,2.45-1.43,3.83C25.8,25.51,26.9,27.86,28.99,29.99z M44.47,29.48c0-0.97-0.01-1.95,0.01-2.92
	c0.01-0.31-0.05-0.52-0.38-0.66c-0.55-0.24-0.99-0.64-1.31-1.15c-0.19-0.3-0.35-0.31-0.68-0.22c-2.79,0.76-5.38,0.4-7.69-1.44
	c-0.3-0.24-0.38-0.13-0.52,0.12c-0.72,1.26-1.79,2.14-3.12,2.68c-0.31,0.13-0.43,0.27-0.43,0.62c0.02,1.84-0.01,3.69,0.01,5.54
	c0.04,2.86,2,5.25,4.76,5.86c1.1,0.24,2.22,0.15,3.33,0.14c3.31-0.04,5.93-2.65,6-5.96C44.49,31.22,44.47,30.35,44.47,29.48z
	 M81.49,51.34c0-1.06,0-2.11,0-3.17c0-0.48-0.22-0.8-0.7-0.81c-0.61-0.02-1.22-0.03-1.82,0.06c-1.46,0.2-2.54,1.31-2.76,2.77
	c-0.11,0.78-0.13,1.58,0.01,2.36c0.23,1.31,1.01,2.18,2.27,2.61c0.77,0.26,1.57,0.19,2.35,0.15c0.45-0.03,0.65-0.35,0.65-0.8
	C81.48,53.45,81.48,52.39,81.49,51.34z M32.18,43.2c0.04,0.11,0.05,0.15,0.07,0.18c1.53,2.22,3.06,4.43,4.58,6.66
	c0.26,0.39,0.38,0.37,0.66,0.01c1.55-2.08,3.14-4.13,4.7-6.2c0.15-0.2,0.37-0.37,0.43-0.7c-0.57,0.06-1.08-0.45-1.68,0.03
	c-2.37,1.91-4.7,1.89-7.06-0.01c-0.21-0.17-0.39-0.26-0.66-0.19C32.88,43.06,32.54,43.12,32.18,43.2z M34.55,40.56h-0.03
	c0,0.33,0.01,0.65,0,0.97c-0.01,0.25,0.09,0.41,0.27,0.57c1.44,1.3,3.21,1.41,4.81,0.35c0.54-0.36,0.85-0.75,0.75-1.44
	c-0.06-0.44-0.03-0.89-0.01-1.33c0.02-0.34-0.06-0.45-0.44-0.38c-1.39,0.26-2.79,0.13-4.19,0.13c-0.39,0-0.89-0.36-1.13-0.05
	C34.39,39.64,34.55,40.15,34.55,40.56z M74.78,52.62c-0.36,0.23-0.65,0.44-0.96,0.61c-0.28,0.16-0.31,0.3-0.12,0.56
	c0.51,0.7,1,1.43,1.5,2.14c0.8,1.15,0.8,1.15,1.95,0.19C75.84,55.33,75.05,54.18,74.78,52.62z"/>
<path class="st0" d="M68.9,91.72c0.13-0.99,0.45-2.12,0.69-3.27c0.27-1.27,0.52-2.54,0.84-3.8c0.18-0.71-0.03-1.2-0.55-1.66
	c-1.66-1.45-3.3-2.93-4.96-4.39c-0.88-0.77-1.22-1.72-0.87-2.84c0.36-1.15,1.2-1.72,2.4-1.83c2.22-0.2,4.44-0.45,6.66-0.64
	c0.69-0.06,1.09-0.4,1.36-1.02c0.86-2.03,1.77-4.05,2.64-6.07c0.47-1.09,1.27-1.73,2.48-1.72c1.21,0.01,1.99,0.66,2.46,1.75
	c0.85,1.97,1.74,3.92,2.56,5.91c0.32,0.77,0.8,1.12,1.63,1.19c2.18,0.17,4.36,0.42,6.54,0.63c1.15,0.11,1.94,0.7,2.3,1.79
	c0.36,1.09,0.06,2.04-0.8,2.8C92.62,80,91,81.46,89.34,82.89c-0.63,0.54-0.82,1.09-0.64,1.92c0.46,2.07,0.97,4.14,1.32,6.24
	c0.27,1.59-0.12,2.65-1.43,3.23c-0.85,0.37-1.66,0.23-2.44-0.23c-1.9-1.12-3.81-2.23-5.7-3.37c-0.63-0.38-1.18-0.37-1.81,0
	c-1.93,1.16-3.86,2.31-5.81,3.42C71.04,95.12,68.9,93.92,68.9,91.72 M87.62,93.08c0.88,0,1.35-0.74,1.12-1.74
	c-0.48-2.16-0.95-4.31-1.45-6.47c-0.27-1.17,0.06-2.1,0.95-2.89c1.65-1.44,3.28-2.91,4.92-4.35c0.46-0.41,0.76-0.85,0.55-1.48
	c-0.2-0.61-0.7-0.79-1.28-0.84c-2.18-0.2-4.36-0.43-6.54-0.62c-1.21-0.11-2.03-0.68-2.51-1.81c-0.86-2.03-1.77-4.05-2.64-6.08
	c-0.24-0.55-0.57-0.94-1.21-0.93c-0.63,0.01-0.96,0.41-1.2,0.96c-0.86,2.01-1.75,4.01-2.61,6.02c-0.49,1.14-1.32,1.74-2.55,1.84
	c-2.18,0.19-4.36,0.42-6.54,0.62c-0.59,0.06-1.06,0.25-1.27,0.86c-0.21,0.62,0.09,1.04,0.53,1.43c1.64,1.45,3.26,2.92,4.92,4.36
	c0.95,0.82,1.25,1.79,0.97,2.99c-0.48,2.11-0.93,4.23-1.41,6.35c-0.14,0.59-0.14,1.13,0.4,1.53c0.54,0.4,1.05,0.23,1.58-0.09
	c1.86-1.11,3.74-2.19,5.6-3.31c1.09-0.65,2.12-0.64,3.2,0.02c1.87,1.13,3.77,2.22,5.66,3.33C87.07,92.95,87.32,93.08,87.62,93.08"/>
<path class="st1" d="M68.9,91.72c0.13-0.99,0.45-2.12,0.69-3.27c0.27-1.27,0.52-2.54,0.84-3.8c0.18-0.71-0.03-1.2-0.55-1.66
	c-1.66-1.45-3.3-2.93-4.96-4.39c-0.88-0.77-1.22-1.72-0.87-2.84c0.36-1.15,1.2-1.72,2.4-1.83c2.22-0.2,4.44-0.45,6.66-0.64
	c0.69-0.06,1.09-0.4,1.36-1.02c0.86-2.03,1.77-4.05,2.64-6.07c0.47-1.09,1.27-1.73,2.48-1.72c1.21,0.01,1.99,0.66,2.46,1.75
	c0.85,1.97,1.74,3.92,2.56,5.91c0.32,0.77,0.8,1.12,1.63,1.19c2.18,0.17,4.36,0.42,6.54,0.63c1.15,0.11,1.94,0.7,2.3,1.79
	c0.36,1.09,0.06,2.04-0.8,2.8C92.62,80,91,81.46,89.34,82.89c-0.63,0.54-0.82,1.09-0.64,1.92c0.46,2.07,0.97,4.14,1.32,6.24
	c0.27,1.59-0.12,2.65-1.43,3.23c-0.85,0.37-1.66,0.23-2.44-0.23c-1.9-1.12-3.81-2.23-5.7-3.37c-0.63-0.38-1.18-0.37-1.81,0
	c-1.93,1.16-3.86,2.31-5.81,3.42C71.04,95.12,68.9,93.92,68.9,91.72z M87.62,93.08c0.88,0,1.35-0.74,1.12-1.74
	c-0.48-2.16-0.95-4.31-1.45-6.47c-0.27-1.17,0.06-2.1,0.95-2.89c1.65-1.44,3.28-2.91,4.92-4.35c0.46-0.41,0.76-0.85,0.55-1.48
	c-0.2-0.61-0.7-0.79-1.28-0.84c-2.18-0.2-4.36-0.43-6.54-0.62c-1.21-0.11-2.03-0.68-2.51-1.81c-0.86-2.03-1.77-4.05-2.64-6.08
	c-0.24-0.55-0.57-0.94-1.21-0.93c-0.63,0.01-0.96,0.41-1.2,0.96c-0.86,2.01-1.75,4.01-2.61,6.02c-0.49,1.14-1.32,1.74-2.55,1.84
	c-2.18,0.19-4.36,0.42-6.54,0.62c-0.59,0.06-1.06,0.25-1.27,0.86c-0.21,0.62,0.09,1.04,0.53,1.43c1.64,1.45,3.26,2.92,4.92,4.36
	c0.95,0.82,1.25,1.79,0.97,2.99c-0.48,2.11-0.93,4.23-1.41,6.35c-0.14,0.59-0.14,1.13,0.4,1.53c0.54,0.4,1.05,0.23,1.58-0.09
	c1.86-1.11,3.74-2.19,5.6-3.31c1.09-0.65,2.12-0.64,3.2,0.02c1.87,1.13,3.77,2.22,5.66,3.33C87.07,92.95,87.32,93.08,87.62,93.08z"
	/>
<path class="st0" d="M37.17,84.24c1.9,0,3.81,0.01,5.71,0c0.47,0,0.86,0.11,0.96,0.63c0.08,0.43-0.3,0.77-0.86,0.78
	c-1.64,0.01-3.28,0-4.92,0c-2.21,0-4.41,0-6.62,0c-0.7,0-1.07-0.25-1.06-0.71c0.01-0.46,0.36-0.69,1.08-0.69
	C33.36,84.24,35.26,84.25,37.17,84.24"/>
<path class="st1" d="M37.17,84.24c1.9,0,3.81,0.01,5.71,0c0.47,0,0.86,0.11,0.96,0.63c0.08,0.43-0.3,0.77-0.86,0.78
	c-1.64,0.01-3.28,0-4.92,0c-2.21,0-4.41,0-6.62,0c-0.7,0-1.07-0.25-1.06-0.71c0.01-0.46,0.36-0.69,1.08-0.69
	C33.36,84.24,35.26,84.25,37.17,84.24z"/>
<path class="st0" d="M37.11,89.94c-1.92,0-3.85-0.01-5.77,0c-0.51,0-0.9-0.12-0.96-0.69c-0.04-0.43,0.33-0.7,0.93-0.7
	c3.85,0,7.69,0,11.54,0c0.66,0,1.01,0.26,0.99,0.71c-0.02,0.45-0.35,0.68-1.03,0.68C40.91,89.95,39.01,89.94,37.11,89.94"/>
<path class="st1" d="M37.11,89.94c-1.92,0-3.85-0.01-5.77,0c-0.51,0-0.9-0.12-0.96-0.69c-0.04-0.43,0.33-0.7,0.93-0.7
	c3.85,0,7.69,0,11.54,0c0.66,0,1.01,0.26,0.99,0.71c-0.02,0.45-0.35,0.68-1.03,0.68C40.91,89.95,39.01,89.94,37.11,89.94z"/>
<path class="st0" d="M45.73,53.2c-0.87,0-1.74-0.01-2.61,0c-0.5,0.01-0.87-0.17-0.87-0.7c0-0.53,0.38-0.7,0.87-0.7
	c1.72,0.01,3.44,0,5.17,0c0.59,0,0.96,0.29,0.91,0.73c-0.06,0.53-0.43,0.67-0.92,0.66C47.44,53.19,46.58,53.2,45.73,53.2"/>
<path class="st1" d="M45.73,53.2c-0.87,0-1.74-0.01-2.61,0c-0.5,0.01-0.87-0.17-0.87-0.7c0-0.53,0.38-0.7,0.87-0.7
	c1.72,0.01,3.44,0,5.17,0c0.59,0,0.96,0.29,0.91,0.73c-0.06,0.53-0.43,0.67-0.92,0.66C47.44,53.19,46.58,53.2,45.73,53.2z"/>
<path class="st0" d="M29.19,51.81c0.87,0,1.74,0.01,2.61,0c0.48,0,0.82,0.21,0.82,0.69c0.01,0.48-0.32,0.71-0.8,0.7
	c-1.78,0-3.56,0-5.34,0c-0.48,0-0.82-0.21-0.82-0.69c0-0.47,0.32-0.71,0.8-0.71C27.37,51.82,28.28,51.81,29.19,51.81L29.19,51.81z"
	/>
<path class="st1" d="M29.19,51.81c0.87,0,1.74,0.01,2.61,0c0.48,0,0.82,0.21,0.82,0.69c0.01,0.48-0.32,0.71-0.8,0.7
	c-1.78,0-3.56,0-5.34,0c-0.48,0-0.82-0.21-0.82-0.69c0-0.47,0.32-0.71,0.8-0.71C27.37,51.82,28.28,51.81,29.19,51.81L29.19,51.81z"
	/>
</svg>
