<svg id="Layer_1" data-name="Layer 1" xmlns="http://www.w3.org/2000/svg" viewBox="0 0 81.45 86.96"><defs><style>.cls-1{fill:#fff;}</style></defs><title>High Researched</title><path class="cls-1" d="M91.53,53.39q0,13.42,0,26.83c0,3.58-.75,4.37-4.24,4.38q-26.52,0-53,0c-3.52,0-4.19-.75-4.22-4.35,0-1.49,0-3,0-4.48,0-.54-.1-1.15-.72-1.26a1.12,1.12,0,0,0-1.33,1c.58,3.95-2.7,5.51-4.75,7.77s-4,4.11-6.08,6.12c-1.9,1.86-4,2.14-5.89.16s-1.38-3.9.38-5.67c3.08-3.09,6.18-6.16,9.26-9.26a5,5,0,0,1,4-1.58c1.78.07,2.31-.78,1.09-2.34C18.62,61.39,20.2,47.32,29,39.92c1.21-1,1-2.2,1-3.44q0-13.89,0-27.79c0-3.91.75-4.65,4.65-4.65,11.39,0,22.79,0,34.18,0a6.12,6.12,0,0,1,4.75,2q7.93,8.1,16,16a5.75,5.75,0,0,1,1.86,4.5c-.08,8.94,0,17.89,0,26.83M33.2,36.67C45.42,32.19,55.55,34.5,62.1,43a22.89,22.89,0,0,1,.8,26.81c-6.41,9.32-16,11.8-29.74,7.53.67,1.58-1.63,4.24,2.32,4.22q25.38-.12,50.76,0c2,0,2.48-.62,2.47-2.54q-.1-25.86,0-51.72a4.31,4.31,0,0,0-1.38-3.36Q79.48,16.21,71.73,8.38a4,4,0,0,0-3-1.39q-16.77.06-33.52,0c-1.53,0-2,.48-2,2,.06,9.15,0,18.29,0,27.68m11,.57A19.7,19.7,0,0,0,24.3,57.06a19.8,19.8,0,1,0,39.59-.19A19.72,19.72,0,0,0,44.16,37.24M25,77.13c-.22-.32-.33-.68-.55-.78-.71-.32-1.17.16-1.63.62l-8.73,8.75c-.53.52-1.26,1.13-.47,1.83s1.31-.22,1.8-.7c2.85-2.82,5.68-5.67,8.52-8.51.36-.37.68-.78,1.06-1.21" transform="translate(-10.12 -3.99)"/><path class="cls-1" d="M61.06,27.81H41.93c-1.13,0-2.73.27-2.8-1.27C39,24.76,40.72,24.9,42,24.9q19.13,0,38.25,0c1.11,0,2.7-.29,2.78,1.33.1,1.94-1.62,1.56-2.82,1.57-6.38,0-12.75,0-19.13,0" transform="translate(-10.12 -3.99)"/><path class="cls-1" d="M55.24,12.94H68.32c1.11,0,2.3,0,2.25,1.52,0,1.29-1.13,1.33-2.12,1.33H41.33c-1,0-2.09-.13-2.1-1.36,0-1.46,1.18-1.5,2.3-1.49H55.24" transform="translate(-10.12 -3.99)"/><path class="cls-1" d="M72.58,39.87c-2.66,0-5.31,0-8,0-1.18,0-2.32-.28-2.3-1.59s1.2-1.55,2.35-1.55c5.42,0,10.84,0,16.25,0,1,0,2,.18,2.1,1.42.09,1.48-1,1.68-2.15,1.68H72.58" transform="translate(-10.12 -3.99)"/><path class="cls-1" d="M73.68,75.7c-2.34,0-4.68,0-7,0-1,0-2-.23-2-1.43a1.62,1.62,0,0,1,1.73-1.55q7.5-.06,15,0c.91,0,1.73.43,1.69,1.5,0,1.26-1,1.48-2,1.48H73.68" transform="translate(-10.12 -3.99)"/><path class="cls-1" d="M75.67,48.79c1.91,0,3.83,0,5.75,0,1,0,1.65.47,1.63,1.53a1.4,1.4,0,0,1-1.47,1.4c-3.94.05-7.88.06-11.81,0a1.36,1.36,0,0,1-1.46-1.39,1.42,1.42,0,0,1,1.61-1.55c1.91,0,3.83,0,5.75,0" transform="translate(-10.12 -3.99)"/><path class="cls-1" d="M76.05,60.82c1.69,0,3.39,0,5.08,0,.9,0,1.66,0,1.49,1.39-.13,1-.43,1.46-1.51,1.45-3.39-.05-6.78,0-10.17,0-.92,0-1.79-.22-1.87-1.28-.1-1.28.84-1.55,1.89-1.56h5.09" transform="translate(-10.12 -3.99)"/><path class="cls-1" d="M41.18,62.46c4.14-4.87,8-9.44,11.86-13.94.67-.77,1.34-2.37,2.74-1.21,1.19,1,.17,2.26-.43,3-4.18,5.1-8.48,10.11-12.77,15.13-1.21,1.41-2.35,1.17-3.32-.35-1.71-2.69-3.47-5.35-5.14-8.06-.45-.73-1.61-1.74-.45-2.41a2.19,2.19,0,0,1,3,.87c1.37,2.27,2.87,4.46,4.5,7" transform="translate(-10.12 -3.99)"/></svg>