<?xml version="1.0" encoding="utf-8"?>
<!-- Generator: Adobe Illustrator 23.0.5, SVG Export Plug-In . SVG Version: 6.00 Build 0)  -->
<svg version="1.1" id="Layer_1" xmlns="http://www.w3.org/2000/svg" xmlns:xlink="http://www.w3.org/1999/xlink" x="0px" y="0px"
	 viewBox="0 0 141.8 115.02" style="enable-background:new 0 0 141.8 115.02;" xml:space="preserve">
<style type="text/css">
	.st0{fill:#FFFFFF;}
</style>
<path class="st0" d="M34.8,18.5c6.37-0.08,10.42,0.97,14.32,2.76c6.36,2.91,10.35,10.67,6.5,18.75c-0.37,0.78-0.29,1.2,0.13,1.91
	c2.31,3.89,2.13,7.86-0.94,11.32c-1.38,1.55-1.77,3.13-1.97,4.99c-0.45,4.24-1.26,8.38-3.95,11.88c-1.62,2.12,0.19,3.04,1.49,3.83
	c3.89,2.34,7.87,4.51,11.84,6.71c3.04,1.69,5.8,3.64,6.86,7.18c0.29,0.97,0.42,2.01,0.54,3.02c0.09,0.78-0.11,1.42-1.13,1.44
	c-0.81,0.01-1.43-0.07-1.44-1.09c-0.05-4.38-3-6.49-6.42-8.32c-3.09-1.65-6.14-3.4-9.11-5.26c-1.55-0.97-2.21-0.94-3.2,0.85
	c-3.27,5.96-8.56,8.43-14.39,7.06c-3.9-0.92-6.59-3.46-8.3-6.89c-1.04-2.07-1.97-2.03-3.73-0.99c-3.72,2.21-7.54,4.26-11.35,6.31
	C7.81,85.43,5.97,87.5,5.8,90.7c-0.06,1.17-0.46,1.73-1.64,1.63c-1.3-0.12-0.99-1.13-0.96-1.88c0.18-3.71,1.99-6.48,5.16-8.29
	c4.56-2.61,9.19-5.11,13.79-7.66c3.46-1.92,3.52-2.19,1.4-5.49c-2.21-3.43-3.17-7.29-3.54-11.28c-0.16-1.72-0.53-3.05-1.8-4.37
	c-3.16-3.29-3.55-7.7-1.13-11.24c0.64-0.93,0.67-1.5,0.11-2.43c-3.43-5.7-1.09-13.58,4.07-16.92C26.05,19.67,31.3,18.62,34.8,18.5
	 M45.57,60.85c5.07-5.67,4.81-12.51,5.26-19.17c0.12-1.72-1.15-1.77-2.21-1.94c-6.65-1.09-13.34-1.29-20.02-0.52
	c-6.44,0.75-6.43,0.87-6.11,7.42c0.04,0.93,0.12,1.85,0.15,2.78c0.12,3.7,1.57,6.99,3.16,10.22c0.38,0.78,1.34,2.24,2.08,0.81
	c1.8-3.5,4.41-4.67,8.26-4.87c3.84-0.19,6.1,0.28,8.21,3.4C44.76,59.58,45.14,60.18,45.57,60.85 M37,83.12
	c4.04-0.02,8.09-2.9,9.49-6.75c0.25-0.69,0.57-1.39-0.13-1.98c-0.78-0.66-1.28,0.14-1.89,0.43c-1.39,0.66-2.74,1.44-4.2,1.91
	c-4.13,1.35-7.91,0.21-11.48-1.93c-0.52-0.31-1.02-0.85-1.66-0.47c-0.53,0.32-0.35,0.84-0.19,1.37C28.23,79.85,32.66,83.13,37,83.12
	 M36.21,65.98c0.7,0.03,1.45,0.31,1.9,0.05c1.75-0.99,4.65-0.82,4.83-3.46c0.12-1.75-1.26-3.41-3.19-3.64
	c-2.12-0.26-4.32-0.19-6.45,0.06c-1.83,0.21-2.76,1.75-3.18,3.4c-0.49,1.94,1.49,2.35,2.5,2.91C33.59,65.85,34.92,66.67,36.21,65.98
	 M19.06,29.52c8.76-3.87,18.24-2.72,27.42-3.63C36.93,24.23,27.65,24.45,19.06,29.52 M47.62,34.25c-3.28-0.75-6.62-0.73-9.95-0.76
	c-5.82-0.05-11.42,1.24-16.92,3c-0.66,0.21-1.7,0.37-1.46,1.21c0.35,1.25,1.33,0.4,2.01,0.2c2.96-0.87,5.91-1.69,8.98-2.15
	C36.03,34.9,41.85,35.06,47.62,34.25 M19.33,44.62c-0.29-0.02-0.58-0.04-0.87-0.07c-1.05,1.88-0.53,3.63,0.87,6.04V44.62z
	 M53.88,43.94c-0.72,2.31-0.49,3.98-0.1,5.65C54.77,47.96,55.41,46.32,53.88,43.94"/>
<path class="st0" d="M125.42,68.66c-1.44,3.35-2.83,6.73-4.34,10.06c-1.8,3.97-3.9,7.74-7.33,10.6c-5.42,4.53-10.57,4.79-16.34,0.74
	c-1.35-0.95-2.67-1.95-4.01-2.91c-0.92-0.66-1.84-1.34-2.81-1.93c-6.87-4.17-10.19-3.19-13.61,3.83c-0.58,1.19-0.54,3.9-2.42,3.06
	c-1.74-0.78-0.42-3.04,0.28-4.43c1.9-3.78,3.96-7.48,6.06-11.14c1.95-3.4,2.93-6.95,2.86-10.91c-0.14-7.33-0.07-14.67-0.05-22
	c0.02-11.52,8.21-20.64,19.53-21.78c10.2-1.02,19.94,6.72,22.1,17.67c1.04,5.27,1.74,10.62,1.8,15.99c0.1,10.1,2.24,19.63,7.2,28.5
	c1.15,2.06,2.33,4.15,2.83,6.5c0.14,0.68,0.37,1.5-0.58,1.85c-1.03,0.37-1.5-0.23-1.82-1.11C132,83.65,126.86,77.02,125.42,68.66
	 M93.28,63.65c-0.11-0.29-0.33-0.51-0.6-0.29c-0.1,0.08,0.05,0.46,0.09,0.71c1.81,4.36,3.47,8.79,5.46,13.07
	c1.7,3.64,4.49,4.25,7.83,1.99c1.72-1.17,3.14-2.69,4.18-4.49c2.01-3.46,3.91-6.98,5.42-10.7c0.47-0.34,0.55-0.77,0.29-1.28
	c-0.28,0.21-0.56,0.42-0.85,0.64C107.39,69.89,101.55,69.99,93.28,63.65 M91.28,49.86l0.65,5.83c0.48,4.33,6.92,10.05,11.11,10
	c7.05-0.08,12.77-4.76,14.13-12.21c1.15-6.32-5.96-16.7-12.3-17.87c-1.08-0.2-2.33-0.41-3.32-0.08
	C96.84,37.03,91.33,44.96,91.28,49.86 M81.4,80.46c5.76,0.25,10.04,2.35,13.94,5.42c1.46,1.15,3.05,2.11,4.54,3.23
	c2.99,2.25,6.12,2.14,9.34,0.65c2.5-1.15,4.44-2.98,6.09-5.14c4.87-6.38,7.54-13.67,8.9-21.5c0.61-3.5,0.76-7.02,0.32-10.6
	c-0.89,0.22-0.89,0.79-1.08,1.24c-3.07,7.21-6.61,14.19-10.41,21.05c-1.63,2.95-3.68,5.47-6.76,7.01c-4.29,2.15-7.94,1.09-10.13-3.2
	c-1.59-3.11-2.85-6.4-4.25-9.61c-1.69-3.89-3.38-7.79-5.07-11.69C86.53,65.34,86.99,73.24,81.4,80.46 M117.83,43.32
	c-0.24-5.08-1.06-9.57-3.74-13.54c-2.37-3.51-5.59-5.28-9.92-5.19c-9.38,0.2-17.18,7.65-17.88,17.21
	c-0.35,4.83,0.56,9.04,2.57,11.59c0.05-5.7-1.29-11.43,1.59-17.56c0.15,1.23,0.19,1.63,0.25,2.02c0.15,0.97-0.57,2.37,0.43,2.83
	c1.36,0.62,1.69-1.14,2.54-1.77c0.49-0.37,0.86-0.88,1.3-1.32c5.85-5.92,11.91-5.82,17.78-0.02
	C114.48,39.27,115.98,41.2,117.83,43.32 M119.83,54.92c4.66-9.1,3.82-19.05-2.21-24.27C120.91,38.83,120.51,46.86,119.83,54.92"/>
</svg>
