<?xml version="1.0" encoding="utf-8"?>
<!-- Generator: Adobe Illustrator 23.0.5, SVG Export Plug-In . SVG Version: 6.00 Build 0)  -->
<svg version="1.1" id="Layer_1" xmlns="http://www.w3.org/2000/svg" xmlns:xlink="http://www.w3.org/1999/xlink" x="0px" y="0px"
	 viewBox="0 0 115.02 115.02" style="enable-background:new 0 0 115.02 115.02;" xml:space="preserve">
<style type="text/css">
	.st0{fill:#FFFFFF;}
</style>
<path class="st0" d="M62.15,89.44H27.42c-0.88,0-1.09-0.2-1.09-1.11c-0.01-5.72-0.01-11.45-0.01-17.17c0-0.26,0.04-0.51-0.29-0.64
	c-0.19-0.08-0.3-0.3-0.3-0.53c0-0.1-0.02-0.2,0-0.29c0.25-1.36-0.24-2.41-1.35-3.19c-0.51-0.36-0.62-0.85-0.61-1.45
	c0.04-1.54,0.01-3.08,0.01-4.62c0-0.75,0.24-1.02,1-0.98c0.44,0.02,0.61-0.08,0.57-0.55c-0.04-0.55-0.01-1.11-0.01-1.67
	c-0.01-1.78-0.76-3.21-2.08-4.38c-3.12-2.77-4.98-6.22-5.4-10.39c-0.85-8.45,4.76-15.92,13.16-17.4
	c7.99-1.41,15.71,3.41,18.04,11.22c0.65,2.2,0.8,4.44,0.49,6.71c-0.06,0.41,0.02,0.52,0.45,0.52c2.54-0.02,5.08,0,7.63-0.01
	c1.79-0.01,3.26,0.63,4.35,2.06c0.16,0.21,0.22,0.2,0.38,0c1.13-1.46,2.64-2.07,4.46-2.06c4.28,0.01,8.56-0.01,12.84,0.01
	c0.46,0,0.53-0.15,0.52-0.55c-0.02-2.12,0.03-4.23-0.02-6.35c-0.03-1.35,0.59-1.39,1.49-1.22c2.95,0.56,4.31,2.93,4.28,5.02
	c-0.01,0.88,0.01,1.77-0.01,2.66C85.9,43.4,86,43.5,86.34,43.5c1.84-0.01,3.67,0.01,5.51-0.01c0.54-0.01,0.85,0.21,1.06,0.68
	c0.64,1.44,1.31,2.86,1.95,4.29c0.13,0.28,0.28,0.39,0.59,0.38c0.51-0.03,1.02-0.01,1.52-0.01c0.77,0,1.01,0.24,1.01,1
	c0,3.25,0.01,6.5,0.01,9.74C98,67.93,98,76.29,98.01,84.66c0,1.23,0.02,2.46,0.02,3.69c0,0.9-0.21,1.1-1.1,1.1H62.15V89.44z
	 M79.87,61.17c-1.51-0.05-3.01-0.04-4.52-0.01c-0.26-0.04-0.53-0.04-0.79,0.01c-1.64-0.05-3.28-0.05-4.92,0c-0.3,0-0.59,0-0.89-0.01
	c-0.46,0-0.92,0-1.38,0c-0.23,0-0.46-0.01-0.69-0.01c-0.06-0.01-0.13-0.02-0.2-0.03c-0.35-0.26-0.54-0.57-0.38-1.01
	c0.16-0.43,0.53-0.49,0.93-0.48c0.08,0,0.16-0.01,0.24-0.02h3.54c2.78,0.01,5.57,0.01,8.35,0.02c1.07,0,1.06,0,1.01-1.08
	c-0.01-0.24-0.09-0.3-0.32-0.3c-2.82,0.01-5.63,0.02-8.45,0.03c-1.57,0-3.15-0.01-4.72-0.01c-0.64-0.29-0.74-0.55-0.51-1.24
	c0.15-0.15,0.32-0.24,0.52-0.31l0.29-0.01c0.2,0,0.39,0,0.59,0c0.36,0.04,0.72,0.04,1.08,0c0.33,0,0.66,0,0.98,0
	c0.13,0.01,0.26,0.02,0.39,0.02c3.1,0,6.2,0,9.29,0c0.85,0,0.82,0,0.85-0.85c0.02-0.43-0.09-0.55-0.54-0.55
	c-4.2,0.02-8.39,0-12.59,0.01c-0.48,0-0.82-0.14-1.02-0.58c-0.01-0.08-0.01-0.15-0.02-0.23c0.15-0.55,0.51-0.71,1.06-0.71
	c4.1,0.01,8.2,0.01,12.3,0.01c0.8,0,0.75,0,0.81-0.79c0.04-0.54-0.17-0.6-0.63-0.6c-4.15,0.02-8.3,0.01-12.44,0.01
	c-0.15,0-0.3,0.01-0.44-0.02c-0.38-0.08-0.6-0.33-0.61-0.72c-0.01-0.4,0.18-0.66,0.57-0.75c0.14-0.04,0.29-0.03,0.44-0.03
	c4.21,0,8.43-0.01,12.64,0c0.37,0,0.47-0.09,0.46-0.46c-0.02-1.67-0.02-3.34,0-5.01c0.01-0.39-0.12-0.46-0.47-0.45
	c-1.18,0.02-2.36,0.01-3.54,0.01c-3.16,0-6.33-0.01-9.49,0c-2.04,0.01-3.64,1.37-3.71,3.18c-0.04,1.03,0,2.07,0.01,3.1
	c-0.01,3.66-0.01,7.32-0.02,10.99c0,1.55,0.01,3.11,0.02,4.66c0,0.33,0,0.66,0,0.99c0,1.25,0,2.49,0,3.74v10.07
	c0.1-0.07,0.15-0.1,0.2-0.13c1.06-0.9,2.3-1.26,3.68-1.26c4.64,0.01,9.28,0,13.92,0c0.81,0,1.57-0.18,2.21-0.68
	c1.53-1.19,1.98-3.04,0.53-4.7c-0.1-0.11-0.19-0.35-0.41-0.11c-0.62,0.65-1.42,0.85-2.28,0.85c-4.59,0-9.18,0-13.77,0.01
	c-0.38,0-0.74-0.05-0.91-0.44c-0.17-0.4-0.03-0.73,0.28-1.01c0.36-0.03,0.71-0.07,1.07-0.1c0.34,0.01,0.69,0.03,1.03,0.03
	c4.02,0,8.03,0,12.05,0c0.39,0,0.79,0,1.21-0.21c-0.3-0.16-0.54-0.13-0.79-0.15c-0.38-0.03-0.75-0.21-0.77-0.56
	c-0.02-0.49-0.25-0.5-0.61-0.47c-0.24,0.02-0.49-0.02-0.73-0.02c-3.94,0-7.87,0.01-11.81,0.02c-0.11,0-0.23,0-0.34-0.01
	c-0.41-0.06-0.69-0.38-0.65-0.78c0.04-0.4,0.26-0.66,0.68-0.71c0.18-0.02,0.36-0.02,0.54-0.02c0.9,0.01,1.8,0.02,2.69,0.02
	c3.27,0,6.54-0.01,9.8-0.02c0.28,0.06,0.43,0,0.4-0.33c-0.03-0.23-0.02-0.46,0-0.68c0.03-0.32-0.11-0.41-0.4-0.33
	c-0.73-0.01-1.47-0.02-2.2-0.02c-3.43,0-6.86,0.01-10.29,0.02c-0.21-0.01-0.43-0.01-0.64-0.05c-0.39-0.08-0.59-0.36-0.59-0.74
	c0-0.38,0.21-0.65,0.6-0.72c0.14-0.03,0.29-0.02,0.44-0.02c4.07,0,8.13,0,12.2,0c0.88,0,0.85,0,0.88-0.89
	c0.01-0.4-0.1-0.52-0.51-0.52c-4.05,0.01-8.1,0.01-12.15,0.01c-0.24,0-0.49,0.02-0.73,0.03c-0.21-0.05-0.4-0.13-0.57-0.26
	c-0.19-0.35-0.21-0.69,0-1.04c0.16-0.08,0.32-0.16,0.48-0.24c0.2,0,0.39,0,0.59-0.01c0.77,0.01,1.53,0.02,2.3,0.02
	c3.4,0,6.8-0.01,10.19-0.02c0.28,0.07,0.43-0.01,0.4-0.33c-0.03-0.24-0.02-0.49,0-0.73c0.02-0.23-0.07-0.32-0.31-0.31
	c-0.59,0.02-1.17,0.02-1.76,0.02c-0.31-0.01-0.62-0.02-0.93-0.02c-3.23,0.01-6.46,0.01-9.7,0.02c-0.39-0.07-0.82,0.08-1.18-0.18
	c-0.05-0.06-0.11-0.12-0.16-0.18c-0.04-0.11-0.07-0.22-0.11-0.34c0.01-0.09,0.02-0.18,0.03-0.28c0.12-0.16,0.23-0.32,0.35-0.48
	c0.48-0.15,0.98-0.03,1.47-0.11c0.2,0.04,0.39,0.04,0.59,0c2.53,0.05,5.05,0.04,7.58,0c0.2,0.04,0.39,0.04,0.59,0
	c1.08,0.05,2.17,0.05,3.25,0c0.38,0.09,0.33-0.21,0.28-0.38c-0.1-0.32,0.3-0.76-0.24-0.96C79.9,61.15,79.88,61.16,79.87,61.17
	 M33.92,26.36c-1.14-0.05-2.26,0.07-3.36,0.32c-6.2,1.38-10.86,6.83-11.22,13.14c-0.27,4.79,1.46,8.77,5.04,11.96
	c1.61,1.43,2.48,3.22,2.47,5.41c0,0.62,0.01,1.25,0,1.87c0,0.22,0.01,0.37,0.3,0.37c0.96-0.02,1.93-0.01,2.91-0.01
	c-0.01-0.1,0-0.17-0.02-0.23c-1.37-5.29-2.74-10.58-4.11-15.88c-0.06-0.22-0.14-0.3-0.39-0.34c-0.91-0.13-1.63-0.58-2.08-1.4
	c-0.76-1.37-0.26-3.06,1.12-3.8c1.37-0.74,3.09-0.2,3.77,1.21c0.15,0.32,0.33,0.38,0.64,0.37c0.44-0.02,0.89-0.04,1.33,0
	c0.42,0.04,0.57-0.07,0.55-0.52c-0.04-1.28-0.02-2.56-0.01-3.84c0-0.11-0.08-0.26,0.09-0.34c1.55,2.04,3.09,4.09,4.73,6.25
	c0-0.45,0.02-0.76-0.01-1.06c-0.03-0.37,0.06-0.51,0.47-0.49c0.95,0.03,1.9,0.01,2.85,0.02c0.26,0,0.43-0.04,0.56-0.33
	c0.58-1.22,1.88-1.82,3.15-1.5c1.3,0.33,2.15,1.45,2.12,2.78c-0.03,1.31-0.96,2.4-2.29,2.63c-0.38,0.06-0.49,0.22-0.58,0.56
	c-1.02,3.98-2.06,7.96-3.09,11.93c-0.34,1.31-0.67,2.63-1.02,3.98c0.87,0,1.68-0.01,2.5,0c0.28,0,0.27-0.17,0.26-0.36
	c0-0.85-0.02-1.71,0-2.56c0.06-1.77,0.84-3.22,2.09-4.41c0.57-0.54,1.19-1.03,1.71-1.62c3.07-3.48,4.27-7.51,3.55-12.11
	c-0.06-0.43-0.13-0.87-0.29-1.28c-0.01-0.07,0-0.13-0.02-0.19c-1.07-3.66-3.22-6.5-6.47-8.5c-1.51-0.93-3.15-1.58-4.92-1.84
	C35.5,26.38,34.71,26.33,33.92,26.36 M48.38,80.29c3.08,0.01,6.16,0.02,9.24,0.03c0.24,0,0.49,0.01,0.73,0.04
	c1.12,0.12,2.1,0.57,3.02,1.34v-0.56c0.01-11.05,0.01-22.1,0.02-33.15c0-0.29-0.08-0.55-0.19-0.8C60.5,45.64,59.24,45,57.62,45
	c-2.64-0.01-5.28,0-7.92-0.01c-0.4,0-0.59,0.09-0.72,0.51c-0.93,3.07-2.69,5.58-5.12,7.65c-1.09,0.93-1.71,2.14-1.73,3.6
	c-0.01,0.72,0.03,1.45-0.02,2.16c-0.03,0.46,0.14,0.54,0.55,0.53c0.8-0.03,1.02,0.22,1.02,1.02c0,1.56-0.03,3.12,0,4.67
	c0.01,0.55-0.09,1-0.55,1.33c-1.13,0.83-1.62,1.91-1.4,3.33c0.09,0.59-0.25,0.87-0.85,0.87c-0.84,0.01-1.67,0-2.51,0
	c-1.64,0-3.28-0.01-4.92-0.01c-0.29,0-0.48,0.02-0.47,0.42c0.02,2.92,0.02,5.83,0,8.75c0,0.38,0.1,0.49,0.49,0.49
	c2.66-0.02,5.31-0.01,7.97-0.01c1.75,0,3.51-0.01,5.26-0.02H48.38z M84.52,80.31c2.16,0,4.19-0.02,6.22,0.01
	c0.49,0.01,0.62-0.12,0.62-0.62c-0.02-4.97-0.01-9.94-0.01-14.9c0-6.41-0.01-12.82,0.01-19.23c0-0.49-0.14-0.59-0.6-0.58
	c-1.39,0.03-2.79,0.01-4.18,0.01c-0.7,0-0.66-0.12-0.66,0.65c0,10.44,0,20.88,0,31.33c0,0.26-0.03,0.52-0.08,0.78
	C85.65,78.69,85.22,79.51,84.52,80.31 M32.36,39.05c0,0.56-0.02,0.96,0.01,1.36c0.02,0.35-0.06,0.49-0.45,0.47
	c-0.95-0.03-1.9,0-2.85-0.02c-0.32,0-0.51,0.06-0.61,0.4c-0.14,0.46-0.43,0.85-0.83,1.13c-0.25,0.17-0.28,0.33-0.2,0.61
	c1.39,5.34,2.78,10.68,4.15,16.03c0.08,0.31,0.2,0.42,0.53,0.41c1.25-0.02,2.49-0.02,3.74,0c0.35,0.01,0.47-0.11,0.55-0.44
	c1.34-5.23,2.7-10.46,4.07-15.69c0.12-0.45,0.18-0.8-0.29-1.07c-0.17-0.1-0.37-0.29-0.41-0.48c-0.2-1.02-0.94-0.93-1.68-0.89
	c-0.11,0.01-0.23,0.01-0.34,0c-0.4-0.05-0.55,0.09-0.53,0.51c0.03,0.97,0.02,1.94,0.01,2.9c0,0.34,0.05,0.69-0.07,1.06
	C35.54,43.26,34,41.22,32.36,39.05 M62.19,87.91L62.19,87.91l1.91,0c10.59,0,21.19,0,31.78,0c0.63,0,0.63,0,0.63-0.63
	c-0.01-12.13-0.02-24.27-0.03-36.4c0-0.1,0-0.2,0-0.29c0-0.08-0.01-0.19-0.11-0.19c-0.31-0.01-0.64-0.07-0.92,0.02
	c-0.22,0.07-0.1,0.38-0.1,0.58c-0.01,11.5-0.01,22.99-0.01,34.49c0,0.95-0.18,1.12-1.11,1.12c-10.17,0-20.33,0-30.5,0
	c-7.54,0-15.09,0-22.63,0c-3.72,0-7.44,0-11.17,0c-0.65,0-0.92-0.27-0.93-0.92c0-0.2,0-0.39,0-0.59c0-4.64,0-9.28,0-13.92
	c0-0.16,0.09-0.39-0.07-0.46c-0.3-0.12-0.65-0.08-0.97-0.02c-0.27,0.05-0.14,0.33-0.14,0.5c0,5.41,0.01,10.82,0.01,16.23
	c0,0.4,0.12,0.49,0.5,0.49c3.71-0.01,7.41-0.01,11.12-0.01H62.19z M92.94,47.93c-0.03,0-0.06,0.01-0.09,0.01v0.49
	c0,9.03,0,18.07,0,27.11c0,1.79,0,3.57,0,5.36c0,0.66-0.25,0.92-0.91,0.95c-0.18,0.01-0.36,0-0.54,0c-5.48,0-10.95,0-16.43,0
	c-2.87,0-5.74-0.02-8.61,0.02c-1.63,0.02-3.01,1.21-3.35,2.75c-0.08,0.38-0.03,0.5,0.4,0.5c9.99-0.01,19.97-0.01,29.96,0
	c0.41,0,0.47-0.13,0.47-0.5c-0.01-11.46-0.01-22.92-0.01-34.38c0-0.18,0.02-0.36-0.07-0.53C93.49,49.11,93.22,48.52,92.94,47.93
	 M45.92,85.1h6.39c2.87,0,5.74-0.01,8.61,0.01c0.48,0,0.52-0.18,0.42-0.55c-0.11-0.41-0.27-0.81-0.52-1.16
	c-0.8-1.12-1.91-1.57-3.26-1.57c-8.3,0.01-16.59,0-24.89,0c-1.02,0-1.2-0.19-1.2-1.21c0-3.18-0.01-6.36,0.01-9.54
	c0-0.41-0.17-0.43-0.49-0.44c-0.34-0.01-0.46,0.09-0.44,0.44c0.03,0.72,0.02,1.44,0.02,2.16c0,3.77,0.01,7.54-0.02,11.31
	c0,0.47,0.14,0.55,0.57,0.55C36.05,85.1,40.98,85.1,45.92,85.1 M84.4,73.66V73.1c0-5.97,0-11.94,0-17.9c0-4.88,0-9.77,0-14.66
	c0-1.51-0.67-2.64-2.03-3.33c-0.69-0.35-0.71-0.33-0.71,0.43c0,9.74,0,19.48,0,29.22c0,1.64-0.02,3.28-0.01,4.92
	c0,0.21-0.11,0.53,0.26,0.6C82.83,72.55,83.62,72.99,84.4,73.66 M41.46,65.92h-0.55c-2.03,0-4.06,0-6.1,0
	c-0.78,0-1.14-0.24-1.16-0.75c-0.01-0.53,0.37-0.78,1.18-0.78c2.3,0,4.59,0,6.89,0c0.15,0,0.34,0.08,0.44-0.11
	c0.22-0.41-0.05-0.84-0.51-0.84c-2.25,0-4.49,0-6.74,0c-0.21,0-0.43,0.01-0.64-0.03c-0.4-0.09-0.63-0.35-0.6-0.78
	c0.02-0.42,0.26-0.66,0.67-0.72c0.15-0.02,0.29-0.01,0.44-0.01c2.31,0,4.62-0.01,6.94,0.01c0.44,0,0.46-0.18,0.46-0.52
	c0.01-0.34-0.05-0.49-0.45-0.48c-1.43,0.03-2.85,0.01-4.28,0.01c-3.89,0-7.77,0.01-11.66-0.01c-0.41,0-0.53,0.12-0.51,0.52
	c0.03,0.65,0.08,1.32-0.01,1.96c-0.19,1.34,0.23,2.37,1.32,3.17c0.25,0.18,0.45,0.32,0.77,0.31c4.1-0.01,8.19-0.03,12.29,0.02
	C40.48,66.92,40.99,66.63,41.46,65.92 M33.66,69.16L33.66,69.16c2.05,0,4.09,0,6.14,0.01c0.29,0,0.44-0.04,0.44-0.39
	c0-0.37-0.17-0.38-0.45-0.38c-4.03,0-8.06,0-12.08,0c-0.28,0-0.49-0.02-0.49,0.39c0,0.43,0.23,0.38,0.5,0.37
	C29.7,69.16,31.68,69.16,33.66,69.16 M43.3,40.25c0.03-0.66-0.54-1.25-1.22-1.27c-0.67-0.02-1.25,0.54-1.27,1.23
	c-0.02,0.66,0.56,1.27,1.23,1.29C42.71,41.51,43.27,40.96,43.3,40.25 M27.13,40.22c-0.01-0.69-0.58-1.26-1.26-1.24
	c-0.69,0.01-1.24,0.58-1.24,1.26c0,0.68,0.58,1.25,1.26,1.25C26.56,41.49,27.14,40.9,27.13,40.22"/>
<path class="st0" d="M46.33,28.47c-0.39,0.01-0.64-0.13-0.77-0.42c-0.13-0.29-0.11-0.59,0.12-0.82c0.94-0.95,1.88-1.9,2.84-2.84
	c0.32-0.31,0.75-0.28,1.06,0c0.29,0.27,0.31,0.75,0.01,1.06c-0.93,0.96-1.88,1.9-2.83,2.85C46.63,28.42,46.46,28.48,46.33,28.47"/>
<path class="st0" d="M18.44,56.29c-0.31,0-0.54-0.13-0.68-0.4c-0.17-0.33-0.11-0.64,0.14-0.9c0.44-0.46,0.9-0.91,1.35-1.35
	c0.44-0.44,0.88-0.88,1.32-1.32c0.42-0.41,0.87-0.45,1.2-0.11c0.33,0.33,0.3,0.76-0.1,1.17c-0.87,0.89-1.75,1.76-2.63,2.64
	C18.87,56.18,18.68,56.29,18.44,56.29"/>
<path class="st0" d="M14.02,41c-0.61,0-1.21,0.01-1.82,0c-0.55-0.01-0.89-0.31-0.88-0.77c0-0.46,0.35-0.75,0.9-0.75
	c1.23-0.01,2.45-0.01,3.68,0c0.57,0,0.89,0.27,0.9,0.74c0.01,0.49-0.31,0.78-0.91,0.78C15.26,41.01,14.64,41,14.02,41"/>
<path class="st0" d="M53.39,39.47c0.64,0,1.28-0.01,1.91,0c0.51,0.01,0.84,0.31,0.84,0.76c0.01,0.45-0.31,0.76-0.83,0.77
	c-1.28,0.02-2.55,0.01-3.83,0c-0.48,0-0.81-0.32-0.82-0.73c-0.01-0.45,0.31-0.78,0.81-0.79C52.11,39.46,52.75,39.47,53.39,39.47"/>
<path class="st0" d="M34.5,20.55c0,0.62,0,1.24,0,1.86c0,0.54-0.32,0.89-0.77,0.88c-0.44-0.01-0.74-0.34-0.75-0.86
	c-0.01-1.23-0.01-2.45-0.01-3.68c0.01-0.62,0.28-0.94,0.75-0.95c0.5-0.01,0.77,0.34,0.77,0.97C34.5,19.38,34.5,19.97,34.5,20.55
	L34.5,20.55z"/>
<path class="st0" d="M21.23,28.47c-0.25,0.01-0.44-0.1-0.61-0.27c-0.89-0.9-1.79-1.78-2.67-2.68c-0.36-0.37-0.37-0.83-0.06-1.13
	c0.33-0.32,0.76-0.3,1.13,0.07c0.9,0.89,1.79,1.78,2.68,2.67c0.25,0.25,0.36,0.54,0.21,0.89C21.79,28.32,21.56,28.46,21.23,28.47"/>
<path class="st0" d="M49.81,55.52c-0.02,0.32-0.14,0.57-0.41,0.7c-0.29,0.14-0.59,0.13-0.83-0.09c-0.98-0.96-1.95-1.93-2.91-2.91
	c-0.27-0.28-0.21-0.76,0.06-1.02c0.32-0.3,0.75-0.29,1.1,0.05c0.92,0.9,1.83,1.82,2.74,2.74C49.72,55.13,49.8,55.32,49.81,55.52"/>
</svg>
