<?xml version="1.0" encoding="utf-8"?>
<!-- Generator: Adobe Illustrator 23.0.5, SVG Export Plug-In . SVG Version: 6.00 Build 0)  -->
<svg version="1.1" id="Layer_1" xmlns="http://www.w3.org/2000/svg" xmlns:xlink="http://www.w3.org/1999/xlink" x="0px" y="0px"
	 viewBox="0 0 115.02 115.02" style="enable-background:new 0 0 115.02 115.02;" xml:space="preserve">
<style type="text/css">
	.st0{fill:#FFFFFF;}
</style>
<g>
	<path class="st0" d="M38.4,22.63c17.67,0,35.33,0.01,52.99,0.01c6.92,0,10.46,3.55,10.47,10.49c0,11.05,0.01,22.1,0,33.15
		c-0.01,6.48-3.64,10.1-10.11,10.1c-5.37,0-10.74,0.04-16.11-0.02c-1.32-0.01-1.62,0.28-1.13,1.57c0.83,2.17,1.68,4.37,2.18,6.63
		c0.57,2.55,1.91,3.48,4.43,3.07c0.91-0.15,2.29-0.63,2.26,0.99c-0.03,1.39-1.34,1.21-2.34,1.21c-11.13,0-22.26,0-33.38,0
		c-1,0-2.27,0.17-2.25-1.3c0.01-1.33,1.24-1.28,2.13-1.13c2.83,0.48,4.24-0.66,4.78-3.47c0.39-2.04,1.16-4.03,1.95-5.97
		c0.62-1.51,0.05-1.63-1.25-1.61c-5.37,0.05-10.74,0.03-16.11,0.02c-6.31-0.02-9.95-3.65-9.96-10.02c-0.02-10.97,0-21.95,0-32.92
		c0.82-0.25,1.64-0.17,2.46-0.01c-0.01,10.2,0.03,20.4-0.05,30.59c-0.01,1.67,0.46,2.13,2.08,2.03c2.25-0.14,4.52-0.1,6.77-0.01
		c1.16,0.05,1.67-0.31,1.82-1.47c0.29-2.28,1.23-4.32,2.55-6.19c1.91-2.71,4.52-4.51,7.68-5.74c-6.77-5.04-8.17-11.76-3.76-17.15
		c3.79-4.63,11.26-5.47,15.8-1.35c2.38,2.15,3.68,4.8,3.76,7.99c0.13,4.71-2.27,8.03-6.31,10.5c4.51,1.71,7.51,4.53,9.44,8.61
		c0.74,1.56,0.09,4,1.86,4.64c1.65,0.6,3.69,0.13,5.56,0.13c0.31,0,0.63-0.04,0.93,0.01c1.6,0.27,1.9-0.48,1.89-1.95
		c-0.05-12.3-0.07-24.6,0.02-36.9c0.01-1.84-0.59-2.14-2.25-2.13c-12.92,0.06-25.84,0.03-38.76,0.03
		C38.15,24.27,38.22,23.45,38.4,22.63 M64.21,68.45c-10.34,0-20.69-0.02-31.03,0.03c-1.17,0-3.1-0.63-3.35,0.45
		c-0.34,1.46,1.05,2.8,2.35,3.75c1.16,0.84,2.47,1.3,3.91,1.3c1.24,0,2.49,0,3.73,0c17.35,0,34.69-0.02,52.04,0.02
		c2.78,0.01,5.02-0.87,6.55-3.25c0.37-0.57,0.92-1.25,0.59-1.92c-0.37-0.75-1.25-0.34-1.89-0.34
		C86.15,68.44,75.18,68.45,64.21,68.45 M46.51,42.47c0,4.74,3.87,8.61,8.59,8.59c4.7-0.01,8.52-3.94,8.47-8.7
		c-0.05-4.64-3.83-8.43-8.47-8.47C50.39,33.85,46.5,37.73,46.51,42.47 M55.04,66.03c3.73,0,7.47-0.01,11.2,0.01
		c0.93,0.01,1.63,0.08,1.43-1.31c-0.8-5.48-6.52-10.26-12.49-10.33c-5.98-0.06-11.72,4.52-12.68,10.07
		c-0.21,1.19-0.01,1.63,1.34,1.59C47.57,65.96,51.31,66.03,55.04,66.03 M53.73,87.39c6.84,0,13.37-0.02,19.9,0.02
		c1.08,0,1.4-0.3,1.03-1.35c-0.99-2.86-1.96-5.73-2.87-8.61c-0.3-0.93-0.87-1.09-1.74-1.08c-3.73,0.04-7.47,0.04-11.2,0
		c-0.97-0.01-1.57,0.19-1.89,1.22C55.97,80.77,54.88,83.92,53.73,87.39 M81.83,56.04c0,2.96,0,5.92,0.01,8.87
		c0,0.36-0.09,0.84,0.4,0.98c0.63,0.18,0.75-0.28,0.89-0.76c0.5-1.73,1.24-3.37,2.79-4.39c0.99-0.65,0.86-1.02,0.21-1.92
		c-1.9-2.61-1.49-5.77,0.81-7.75c1.6-1.38,5.72-1.4,7.27-0.05c2.5,2.19,2.89,5.09,0.9,7.89c-0.54,0.77-0.79,1.11,0.14,1.73
		c1.47,0.98,2.36,2.45,2.82,4.16c0.14,0.51,0.1,1.23,0.87,1.12c0.78-0.12,0.49-0.86,0.49-1.34c0.02-5.61-0.03-11.21,0.05-16.81
		c0.02-1.4-0.5-1.67-1.76-1.66c-4.75,0.06-9.5,0.07-14.24-0.01c-1.39-0.02-1.69,0.51-1.66,1.77C81.89,50.59,81.83,53.31,81.83,56.04
		 M81.82,34.37c0,2.72-0.01,5.44,0.01,8.17c0,0.43-0.15,1.02,0.52,1.09c0.64,0.07,0.69-0.45,0.79-0.91
		c0.36-1.74,1.23-3.24,2.66-4.25c1-0.71,1.1-1.1,0.27-2.07c-1.31-1.53-1.49-3.4-0.81-5.28c0.82-2.26,2.51-3.54,4.88-3.77
		c2.29-0.22,4.14,0.75,5.32,2.69c1.24,2.02,1.28,4.22-0.15,6.13c-0.82,1.09-1.01,1.58,0.28,2.42c1.32,0.86,2.05,2.3,2.46,3.85
		c0.13,0.5,0.05,1.23,0.82,1.17c0.84-0.07,0.52-0.83,0.53-1.29c0.03-3.5,0.09-7,0-10.5c-0.1-3.82-2.81-6.54-6.69-6.69
		c-3.11-0.12-6.22,0.02-9.33-0.06c-1.24-0.03-1.62,0.39-1.58,1.6C81.87,29.23,81.82,31.8,81.82,34.37 M90.61,65.97
		c1.32,0,2.63-0.02,3.95,0.01c0.87,0.02,1.35-0.09,0.89-1.15c-0.9-2.06-2.5-3.11-4.67-3.29c-1.75-0.15-4.7,1.56-5.14,2.98
		c-0.22,0.73-0.23,1.55,1.03,1.47C87.97,65.91,89.29,65.97,90.61,65.97 M90.41,43.68c1.39,0,2.79-0.04,4.18,0.01
		c1.26,0.05,1.19-0.48,0.8-1.39c-1.47-3.47-6.15-4.21-8.64-1.33c-0.6,0.7-1.41,1.55-1.02,2.42c0.3,0.68,1.39,0.22,2.13,0.27
		C88.7,43.72,89.56,43.68,90.41,43.68 M93.86,33.07c0.02-1.74-1.45-3.28-3.18-3.31c-1.71-0.04-3.26,1.47-3.3,3.21
		c-0.04,1.75,1.41,3.23,3.19,3.25C92.37,36.25,93.84,34.84,93.86,33.07 M90.65,52.15c-1.73-0.01-3.25,1.5-3.27,3.23
		c-0.02,1.72,1.48,3.22,3.23,3.24c1.78,0.01,3.24-1.42,3.25-3.2C93.87,53.7,92.37,52.17,90.65,52.15"/>
	<path class="st0" d="M29.4,33.44c-0.82-0.16-1.64-0.23-2.46,0.01c-4.81-0.04-9.62-0.07-14.44-0.12c-4.73-0.05-7.02-2.28-7.1-6.99
		c-0.05-2.95-0.05-5.9,0.01-8.85c0.08-4.11,2.48-6.53,6.56-6.55c6.6-0.04,13.2-0.04,19.8,0c4.07,0.02,6.45,2.48,6.52,6.57
		c0.03,1.71,0.08,3.41,0.12,5.11c-0.18,0.82-0.25,1.64,0.02,2.46c-0.05,3.34-0.03,6.68-0.17,10.02c-0.05,1.31,0.8,3.13-0.79,3.82
		c-1.57,0.68-2.25-1.25-3.34-2.01C32.52,35.8,31.63,33.71,29.4,33.44 M35.28,35.05c0.19-0.21,0.37-0.42,0.56-0.62
		c0-5.58,0-11.16,0-16.74c0-2.69-1.36-4.25-4.02-4.28c-6.61-0.07-13.22-0.07-19.83,0c-2.66,0.03-3.99,1.45-4.02,4.09
		c-0.04,2.96-0.02,5.91,0,8.87c0.02,3.16,1.35,4.5,4.56,4.53c3.97,0.03,7.93,0.04,11.9,0C28.52,30.84,32.83,30.1,35.28,35.05"/>
	<path class="st0" d="M23.84,25.26c2.02,0,4.04-0.01,6.06,0.01c0.73,0.01,1.49,0.15,1.5,1.08c0.01,0.97-0.66,1.35-1.54,1.35
		c-4.12,0.01-8.24,0.01-12.36-0.01c-0.81,0-1.38-0.46-1.4-1.25c-0.02-0.88,0.66-1.16,1.44-1.16c2.1-0.01,4.2,0,6.3,0V25.26z"/>
	<path class="st0" d="M25.63,20.67c1.4,0,2.8,0,4.2,0c0.76,0,1.44,0.19,1.5,1.1c0.06,0.87-0.5,1.3-1.29,1.3
		c-2.88,0.02-5.75,0.03-8.63-0.03c-0.81-0.02-1.62-0.49-1.58-1.37c0.03-0.84,0.91-0.96,1.61-0.98c1.4-0.04,2.8-0.01,4.2-0.01V20.67z
		"/>
	<path class="st0" d="M17.03,18.23c-1.16,0-2.33,0.03-3.49-0.01c-0.69-0.02-1.27-0.5-1.32-1.1c-0.07-0.76,0.55-1.33,1.3-1.36
		c2.25-0.07,4.5-0.07,6.75-0.02c0.82,0.02,1.2,0.71,1.24,1.43c0.06,0.97-0.73,1.08-1.45,1.1c-1.01,0.04-2.02,0.01-3.03,0.01
		C17.03,18.26,17.03,18.24,17.03,18.23"/>
	<path class="st0" d="M27.15,18.17c-0.85-0.04-1.7-0.02-2.54-0.13c-0.59-0.07-1.26-0.15-1.26-1.04c0-0.71,0.47-0.94,1-1.06
		c1.98-0.48,3.99-0.27,5.98-0.13c0.7,0.05,1.01,0.63,0.93,1.36c-0.07,0.68-0.53,0.92-1.11,0.94c-1,0.04-2.01,0.01-3.01,0.01
		C27.15,18.13,27.15,18.15,27.15,18.17"/>
	<path class="st0" d="M15.3,23.14c-1.13-0.25-2.97,0.57-3.03-1.22c-0.07-1.92,1.8-1.03,2.87-1.26c0.07-0.02,0.16-0.01,0.23,0
		c1.15,0.23,3.16-0.7,3.11,1.26C18.43,23.83,16.42,22.82,15.3,23.14"/>
</g>
</svg>
