<svg id="Layer_1" data-name="Layer 1" xmlns="http://www.w3.org/2000/svg" viewBox="0 0 25.96 37.11"><defs><style>.cls-1{fill:#818b9c;}</style></defs><title>Access</title><path class="cls-1" d="M1.41,19.24c.3,1.85,2.33,6.16,6.33,10.2v2.2H22.09v-2.2L23.54,27a5.59,5.59,0,0,0,.79-2.87V16.7c0-.64-.76-1.29-1.78-1.49a2.33,2.33,0,0,0-2,.38c0-.64-.76-1.29-1.78-1.49a2.45,2.45,0,0,0-1.85.28A2.22,2.22,0,0,0,15.1,13a2.47,2.47,0,0,0-2,.36h0c0-.19-1.11-10.7-1.11-10.72-.2-1.85-3.22-1.61-3.21.23V20.18a.39.39,0,0,1-.36.4H8.29A3.65,3.65,0,0,1,5.12,18.7L4.65,18A1.74,1.74,0,0,0,1.41,19.24Z"/><path class="cls-1" d="M7.74,34.93a.79.79,0,0,0,.8.79H21.31a.79.79,0,0,0,.79-.79v-2H7.74v2Z"/></svg>