<svg id="Layer_1" data-name="Layer 1" xmlns="http://www.w3.org/2000/svg" viewBox="0 0 50 50"><defs><style>.cls-1{fill:#818b9c;}.cls-2{fill:#fff;}</style></defs><title>Duration</title><circle class="cls-1" cx="25" cy="25.31" r="24.59"/><path class="cls-2" d="M22.24,17.75c0-2.05,0-4.09,0-6.13,0-1.84.85-2.84,2.32-2.86s2.49,1,2.51,2.85c0,3.15.09,6.31,0,9.47a1.83,1.83,0,0,0,1.37,2c1.8.72,3.55,1.58,5.32,2.4,1.59.75,2.2,2,1.63,3.33s-2,1.76-3.56,1c-2.62-1.17-5.22-2.4-7.85-3.56a2.53,2.53,0,0,1-1.67-2.6c0-2,0-4,0-6Z"/></svg>