<svg id="Layer_1" data-name="Layer 1" xmlns="http://www.w3.org/2000/svg" viewBox="0 0 18.94 16.4"><defs><style>.cls-1{fill:#818b9c;}</style></defs><title>Language</title><path class="cls-1" d="M16.15,14.15v1.3a.62.62,0,0,1-.69.69A1,1,0,0,1,15,15.9l-1.6-1.6a.46.46,0,0,0-.36-.15H9.14A2.08,2.08,0,0,1,7,12V7.11A2.08,2.08,0,0,1,8.64,5a2.29,2.29,0,0,1,.52,0h7.29a2,2,0,0,1,2,1.24,2.23,2.23,0,0,1,.19.92c0,1.62,0,3.24,0,4.85a2.1,2.1,0,0,1-2.19,2.17Zm-3.34-3.4a3.17,3.17,0,0,1-.75-.93.63.63,0,0,0-.3-.28.36.36,0,0,0-.42.14.38.38,0,0,0,0,.47c.22.36.47.71.7,1.07a3.15,3.15,0,0,1-1.08.23.41.41,0,0,0-.24.06.36.36,0,0,0-.18.43.42.42,0,0,0,.43.33,3.63,3.63,0,0,0,1.74-.44.26.26,0,0,1,.28,0,3.68,3.68,0,0,0,1.72.43.39.39,0,0,0,.42-.46.4.4,0,0,0-.39-.36,3,3,0,0,1-1.14-.25l0-.07a3.7,3.7,0,0,0,1-2.06c0-.05.1-.1.16-.12a3.38,3.38,0,0,0,.34-.11.38.38,0,0,0,.15-.45.41.41,0,0,0-.42-.29H13.22c0-.27,0-.51,0-.75s-.17-.52-.42-.5a.43.43,0,0,0-.41.5c0,.24,0,.49,0,.75H10.77a.42.42,0,1,0,0,.84h3.06A2.94,2.94,0,0,1,12.81,10.75Z"/><path class="cls-1" d="M2.79,9.58c-.21,0-.4,0-.59,0A2.08,2.08,0,0,1,.29,7.45Q.28,5,.29,2.5A2.08,2.08,0,0,1,2.45.39H9.82A2.07,2.07,0,0,1,12,2.54v1.6H9.18a3,3,0,0,0-1.71.47l-.08,0L6.85,3.46c-.11-.23-.21-.46-.31-.7a.43.43,0,0,0-.81,0l-2,4.49a.43.43,0,0,0,.19.6.42.42,0,0,0,.57-.25c.19-.41.38-.82.55-1.23a.22.22,0,0,1,.24-.15c.33,0,.66,0,1,0a23.63,23.63,0,0,0-.09,3.14c0,.16,0,.23-.21.21a.48.48,0,0,0-.45.19L3.92,11.32a.62.62,0,0,1-.74.19.65.65,0,0,1-.39-.66Z"/><path class="cls-1" d="M6.13,3.9c.21.46.41.88.59,1.31,0,0-.08.17-.13.17-.37,0-.74,0-1.14,0Z"/></svg>